<svg width="23" height="23" viewBox="0 0 23 23" fill="none" xmlns="http://www.w3.org/2000/svg">
<g clip-path="url(#clip0_1460_227)">
<path d="M20.3265 15.2279C19.7168 16.6697 18.7632 17.9402 17.5491 18.9283C16.335 19.9165 14.8973 20.5921 13.3617 20.8963C11.8262 21.2004 10.2395 21.1237 8.74036 20.673C7.24127 20.2222 5.87541 19.4111 4.7622 18.3106C3.649 17.21 2.82234 15.8535 2.3545 14.3596C1.88666 12.8658 1.79189 11.2801 2.07846 9.74112C2.36504 8.20218 3.02424 6.75687 3.99843 5.53154C4.97263 4.30622 6.23215 3.33819 7.66689 2.7121" stroke="#6A6A6A" stroke-width="2" stroke-linecap="round" stroke-linejoin="round"/>
<path d="M21.0833 11.5C21.0833 10.2415 20.8355 8.99534 20.3538 7.83264C19.8722 6.66993 19.1663 5.61348 18.2764 4.72358C17.3865 3.83369 16.3301 3.12778 15.1674 2.64617C14.0047 2.16457 12.7585 1.91669 11.5 1.91669V11.5H21.0833Z" stroke="#6A6A6A" stroke-width="2" stroke-linecap="round" stroke-linejoin="round"/>
</g>
<defs>
<clipPath id="clip0_1460_227">
<rect width="23" height="23" fill="white"/>
</clipPath>
</defs>
</svg>
