<svg width="751" height="680" viewBox="0 0 751 680" fill="none" xmlns="http://www.w3.org/2000/svg">
<g clip-path="url(#clip0_1874_2631)">
<path d="M794.125 566.975H56.7983V567.346H794.125V566.975Z" fill="#EBEBEB"/>
<path d="M188.78 577.072H134.159V577.443H188.78V577.072Z" fill="#EBEBEB"/>
<path d="M410.715 585.093H306.014V585.464H410.715V585.093Z" fill="#EBEBEB"/>
<path d="M271.611 577.25H196.772V577.621H271.611V577.25Z" fill="#EBEBEB"/>
<path d="M728.429 588.34H656.658V588.711H728.429V588.34Z" fill="#EBEBEB"/>
<path d="M650.096 588.34H602.951V588.711H650.096V588.34Z" fill="#EBEBEB"/>
<path d="M557.03 582.083H465.587V582.454H557.03V582.083Z" fill="#EBEBEB"/>
<path d="M406.291 500.848H121.551C119.32 500.844 117.182 499.95 115.606 498.363C114.03 496.775 113.145 494.624 113.145 492.382V89.9391C113.164 87.7092 114.058 85.577 115.632 84.0057C117.206 82.4344 119.333 81.5509 121.551 81.5471H406.291C408.524 81.5471 410.666 82.4391 412.245 84.0268C413.824 85.6145 414.712 87.7678 414.712 90.0132V492.382C414.712 494.627 413.824 496.78 412.245 498.368C410.666 499.956 408.524 500.848 406.291 500.848ZM121.551 81.8437C119.418 81.8476 117.374 82.7022 115.867 84.22C114.36 85.7377 113.514 87.7946 113.514 89.9391V492.382C113.514 494.526 114.36 496.583 115.867 498.101C117.374 499.618 119.418 500.473 121.551 500.477H406.291C408.425 500.473 410.471 499.619 411.98 498.101C413.489 496.584 414.339 494.527 414.343 492.382V89.9391C414.339 87.7932 413.489 85.7364 411.98 84.2191C410.471 82.7017 408.425 81.8476 406.291 81.8437H121.551Z" fill="#EBEBEB"/>
<path d="M725.273 500.848H440.517C438.285 500.844 436.146 499.95 434.568 498.364C432.989 496.777 432.101 494.626 432.097 492.382V89.9391C432.12 87.7078 433.017 85.5757 434.594 84.0048C436.17 82.4339 438.298 81.5509 440.517 81.5471H725.273C727.488 81.5548 729.611 82.4401 731.182 84.0109C732.753 85.5818 733.644 87.7117 733.664 89.9391V492.382C733.664 494.622 732.781 496.771 731.208 498.357C729.635 499.944 727.501 500.84 725.273 500.848ZM440.517 81.8437C438.383 81.8476 436.338 82.7017 434.828 84.2191C433.319 85.7364 432.47 87.7932 432.466 89.9391V492.382C432.47 494.527 433.319 496.584 434.828 498.101C436.338 499.619 438.383 500.473 440.517 500.477H725.273C727.407 500.473 729.453 499.619 730.962 498.101C732.471 496.584 733.321 494.527 733.324 492.382V89.9391C733.321 87.7932 732.471 85.7364 730.962 84.2191C729.453 82.7017 727.407 81.8476 725.273 81.8437H440.517Z" fill="#EBEBEB"/>
<path d="M699.187 562.408H584.164C578.798 562.408 573.652 560.265 569.857 556.45C566.063 552.635 563.931 547.461 563.931 542.066V438.16C563.931 432.765 566.063 427.591 569.857 423.776C573.652 419.961 578.798 417.818 584.164 417.818H699.187V562.408Z" fill="#F0F0F0"/>
<path d="M698.242 562.408H700.145C711.319 562.408 720.377 553.301 720.377 542.066V438.16C720.377 426.925 711.319 417.818 700.145 417.818H698.242C687.068 417.818 678.01 426.925 678.01 438.16V542.066C678.01 553.301 687.068 562.408 698.242 562.408Z" fill="#F5F5F5"/>
<path d="M683.777 471.15H431.729V562.408H683.777V471.15Z" fill="#F0F0F0"/>
<path d="M696.119 566.975H323.593C323.047 566.977 322.507 566.871 322.002 566.662C321.498 566.454 321.039 566.147 320.653 565.76C320.267 565.373 319.96 564.913 319.751 564.406C319.542 563.9 319.434 563.357 319.434 562.809V562.408H584.075L700.263 562.809C700.263 563.914 699.827 564.973 699.049 565.755C698.272 566.536 697.218 566.975 696.119 566.975Z" fill="#E0E0E0"/>
<path d="M347.659 357.829H589.266C596.748 357.829 603.923 360.817 609.214 366.136C614.504 371.455 617.476 378.67 617.476 386.192V491.774H319.434V386.192C319.434 378.67 322.406 371.455 327.697 366.136C332.987 360.817 340.162 357.829 347.644 357.829H347.659Z" fill="#E0E0E0"/>
<path d="M367.007 357.829H611.268C618.39 357.829 625.22 360.673 630.256 365.737C635.292 370.8 638.122 377.668 638.122 384.828V491.788H340.153V384.828C340.153 377.668 342.983 370.8 348.019 365.737C353.055 360.673 359.885 357.829 367.007 357.829Z" fill="#F5F5F5"/>
<path d="M671.728 462.817H450.914C447.535 462.817 444.294 464.167 441.905 466.569C439.515 468.971 438.173 472.23 438.173 475.627V487.177C438.173 490.575 439.515 493.833 441.905 496.236C444.294 498.638 447.535 499.988 450.914 499.988H671.728C674.156 499.988 676.56 499.507 678.803 498.572C681.045 497.638 683.083 496.268 684.799 494.541C686.515 492.814 687.876 490.765 688.803 488.509C689.731 486.253 690.208 483.836 690.206 481.395C690.206 476.468 688.259 471.742 684.794 468.258C681.329 464.774 676.629 462.817 671.728 462.817Z" fill="#E0E0E0"/>
<path d="M431.08 562.408H316.057C310.691 562.408 305.545 560.265 301.751 556.45C297.957 552.635 295.825 547.461 295.825 542.066V438.16C295.825 432.765 297.957 427.591 301.751 423.776C305.545 419.961 310.691 417.818 316.057 417.818H431.08V562.408Z" fill="#F0F0F0"/>
<path d="M430.122 562.408H432.024C443.198 562.408 452.256 553.301 452.256 542.066V438.16C452.256 426.925 443.198 417.818 432.024 417.818H430.122C418.948 417.818 409.89 426.925 409.89 438.16V542.066C409.89 553.301 418.948 562.408 430.122 562.408Z" fill="#F5F5F5"/>
<path d="M648.223 137.177H544.068V291.168H648.223V137.177Z" fill="#E0E0E0"/>
<path d="M654.49 137.177H546.914V291.168H654.49V137.177Z" fill="#F5F5F5"/>
<path d="M555.924 149.305V279.025H645.479V149.305H555.924Z" fill="white"/>
<path d="M589.561 220.429V230.304C592.487 230.304 595.385 229.724 598.088 228.599C600.791 227.473 603.248 225.822 605.317 223.742C607.386 221.662 609.027 219.192 610.147 216.474C611.267 213.756 611.843 210.843 611.843 207.901V198.026C608.916 198.024 606.018 198.602 603.314 199.727C600.61 200.853 598.152 202.503 596.083 204.583C594.014 206.664 592.372 209.135 591.253 211.854C590.134 214.573 589.559 217.487 589.561 220.429Z" fill="#F5F5F5"/>
<path d="M589.561 187.128V197.003C595.469 196.999 601.135 194.637 605.312 190.437C609.49 186.236 611.839 180.54 611.843 174.6V164.71C608.916 164.71 606.017 165.29 603.313 166.417C600.608 167.544 598.151 169.195 596.082 171.277C594.013 173.359 592.372 175.831 591.253 178.55C590.134 181.27 589.559 184.185 589.561 187.128Z" fill="#F5F5F5"/>
<path d="M589.561 253.745V263.62C595.472 263.616 601.139 261.252 605.317 257.048C609.496 252.845 611.843 247.145 611.843 241.202V231.297C608.913 231.297 606.012 231.878 603.305 233.007C600.599 234.136 598.141 235.79 596.071 237.875C594.002 239.96 592.361 242.435 591.244 245.158C590.127 247.881 589.555 250.799 589.561 253.745Z" fill="#F5F5F5"/>
<path d="M493.532 257.956V149.305L153.389 149.305V257.956H493.532Z" fill="#EBEBEB"/>
<path d="M153.388 257.956V149.305H151.338V257.956H153.388Z" fill="#E0E0E0"/>
<path d="M476.765 166.163H170.155V241.098H476.765V166.163Z" fill="#F5F5F5"/>
<path d="M243.637 241.098H218.169L238.107 166.163H263.574L243.637 241.098Z" fill="white"/>
<path d="M267.32 241.098H252.588L272.525 166.163H287.257L267.32 241.098Z" fill="white"/>
<path d="M395.511 241.098H380.779L400.717 166.163H415.448L395.511 241.098Z" fill="white"/>
<path d="M285.841 442.712H203.394L193.189 330.088H275.652L285.841 442.712Z" fill="#E6E6E6"/>
<path d="M290.117 442.712H207.655L197.465 330.088H279.927L290.117 442.712Z" fill="#F0F0F0"/>
<path d="M218.921 430.243L210.988 342.557H268.647L276.58 430.243H218.921Z" fill="white"/>
<path d="M347.644 442.712H336.54V566.96H347.644V442.712Z" fill="#E6E6E6"/>
<path d="M351.139 442.712H343.427V566.96H351.139V442.712Z" fill="#F5F5F5"/>
<path d="M236.352 456.427H353.528V442.712H236.352V456.427Z" fill="#F5F5F5"/>
<path d="M231.382 456.427H220.278V566.975H231.382V456.427Z" fill="#E6E6E6"/>
<path d="M234.892 456.427H227.18V566.975H234.892V456.427Z" fill="#F5F5F5"/>
<path d="M161.13 456.427H150.026V566.975H161.13V456.427Z" fill="#E6E6E6"/>
<path d="M164.639 456.427H156.927V566.975H164.639V456.427Z" fill="#F5F5F5"/>
<path d="M277.392 456.427H266.288V566.975H277.392V456.427Z" fill="#E6E6E6"/>
<path d="M280.887 456.427H273.174V566.975H280.887V456.427Z" fill="#F5F5F5"/>
<path d="M236.353 442.712H150.026V456.427H236.353V442.712Z" fill="#E6E6E6"/>
<path d="M425.461 633.932C583.371 633.932 711.382 626.418 711.382 617.149C711.382 607.879 583.371 600.365 425.461 600.365C267.552 600.365 139.541 607.879 139.541 617.149C139.541 626.418 267.552 633.932 425.461 633.932Z" fill="#F5F5F5"/>
<path d="M541.014 201.644C535.381 198.1 519.204 201.644 521.844 219.436C524.484 237.228 503.691 232.676 508.233 253.374C512.775 274.072 549.626 304.823 572.321 283.947C595.016 263.071 575.89 253.864 576.318 229.088C576.613 214.365 569.977 188.003 541.014 201.644Z" fill="#263238"/>
<path d="M574.401 283.058C574.296 283.057 574.195 283.014 574.121 282.939C574.085 282.904 574.057 282.863 574.037 282.817C574.018 282.771 574.008 282.722 574.008 282.672C574.008 282.622 574.018 282.573 574.037 282.527C574.057 282.481 574.085 282.44 574.121 282.405C588.101 268.438 584.871 259.928 580.786 249.164C578.515 243.233 575.964 236.472 575.743 227.709C575.522 218.25 572.086 205.336 563.135 200.013C556.794 196.247 548.654 196.899 538.95 201.955C538.862 201.998 538.761 202.004 538.667 201.974C538.574 201.944 538.496 201.879 538.449 201.792C538.424 201.748 538.408 201.699 538.403 201.648C538.397 201.597 538.402 201.546 538.417 201.497C538.433 201.448 538.458 201.403 538.491 201.365C538.524 201.326 538.565 201.295 538.611 201.273C548.565 196.084 556.941 195.446 563.533 199.361C572.735 204.846 576.274 218.042 576.51 227.68C576.716 236.324 579.253 242.996 581.494 248.882C585.667 259.913 588.985 268.631 574.652 282.983C574.579 283.036 574.491 283.062 574.401 283.058Z" fill="#263238"/>
<path d="M577.674 281.026C577.674 281.026 577.91 281.367 578.072 281.59L578.662 282.39C579.095 282.944 579.552 283.492 580.034 284.036C581.022 285.156 582.076 286.215 583.189 287.209C585.473 289.311 587.941 291.202 590.563 292.858C593.225 294.562 595.993 296.092 598.85 297.439C600.325 298.166 601.799 298.744 603.274 299.397C603.554 299.53 603.274 299.397 603.082 299.515C602.891 299.634 602.728 299.738 602.891 299.649C603.614 299.029 604.188 298.254 604.572 297.38C605.224 296.073 605.781 294.72 606.238 293.332C607.228 290.236 608.031 287.082 608.642 283.888C609.305 280.626 609.822 277.29 610.279 273.924C610.736 270.558 611.149 267.148 611.517 263.812H617.519C618.011 270.903 617.956 278.021 617.357 285.104C617.082 288.774 616.525 292.417 615.691 296.001C615.243 297.948 614.631 299.852 613.862 301.695C612.931 304.041 611.49 306.148 609.645 307.863C608.285 309.059 606.629 309.863 604.852 310.19C603.092 310.487 601.285 310.329 599.602 309.731C597.877 309.108 596.122 308.589 594.411 307.877C590.939 306.514 587.577 304.883 584.354 302.999C581.082 301.044 577.988 298.801 575.108 296.298C573.648 294.995 572.269 293.604 570.979 292.131C570.316 291.39 569.667 290.649 569.047 289.789L568.133 288.484C567.809 287.995 567.588 287.654 567.13 286.853L577.674 281.026Z" fill="#FFC3BD"/>
<path d="M575.655 275.54C589.443 284.436 588.322 289.833 588.322 289.833L579.651 302.466C579.651 302.466 557.531 293.57 556.16 286.586C554.715 279.306 568.96 271.241 575.655 275.54Z" fill="#263238"/>
<path opacity="0.1" d="M575.655 275.54C589.443 284.436 588.322 289.833 588.322 289.833L579.651 302.466C579.651 302.466 557.531 293.57 556.16 286.586C554.715 279.306 568.96 271.241 575.655 275.54Z" fill="white"/>
<path d="M589.147 288.588C589.403 288.77 589.578 289.047 589.633 289.357C589.688 289.668 589.619 289.988 589.442 290.248L580.594 303.014C580.507 303.145 580.394 303.257 580.263 303.343C580.132 303.429 579.985 303.488 579.831 303.516C579.676 303.543 579.518 303.539 579.366 303.504C579.213 303.469 579.069 303.403 578.942 303.311C578.815 303.221 578.706 303.106 578.623 302.974C578.54 302.841 578.484 302.694 578.458 302.539C578.432 302.385 578.437 302.227 578.472 302.074C578.507 301.922 578.571 301.778 578.662 301.65L587.51 288.884C587.691 288.631 587.963 288.458 588.269 288.403C588.574 288.347 588.889 288.414 589.147 288.588Z" fill="#973939"/>
<path d="M612.492 266.718L605.649 257.526L618.774 254.13C618.774 254.13 621.443 262.315 617.078 268.32L612.492 266.718Z" fill="#FFC3BD"/>
<path d="M606.018 246.228L616.945 244.375L618.774 254.13L605.649 257.526L606.018 246.228Z" fill="#FFC3BD"/>
<path d="M494.829 604.338L507.334 605.554L516.271 575.99L503.765 574.774L494.829 604.338Z" fill="#FFC3BD"/>
<path d="M415.271 560.644L424.546 569.392L444.572 547.27L435.296 538.522L415.271 560.644Z" fill="#FFC3BD"/>
<path d="M428.838 565.196L421.863 552.578C421.749 552.358 421.558 552.187 421.326 552.1C421.095 552.012 420.84 552.013 420.609 552.104L409.874 556.211C409.6 556.323 409.354 556.493 409.152 556.709C408.949 556.926 408.796 557.184 408.702 557.465C408.609 557.747 408.576 558.045 408.608 558.341C408.64 558.636 408.734 558.921 408.886 559.176C411.393 563.535 412.823 565.522 415.876 571.037C417.763 574.448 421.435 582.291 424.045 587.006C426.655 591.721 431.419 589.393 430.77 587.184C427.82 577.324 428.351 571.838 429.192 567.494C429.344 566.71 429.219 565.897 428.838 565.196Z" fill="#263238"/>
<path d="M508.823 601.714H493.649C493.378 601.719 493.116 601.811 492.902 601.976C492.687 602.142 492.53 602.372 492.454 602.633L489.151 614.702C489.074 614.988 489.063 615.288 489.12 615.578C489.178 615.869 489.301 616.142 489.481 616.376C489.661 616.611 489.893 616.8 490.158 616.928C490.423 617.057 490.715 617.123 491.009 617.119C496.348 617.119 498.884 617.119 505.549 617.119H525.944C531.489 617.119 532.639 611.485 530.368 610.981C520.045 608.697 514.147 605.539 510.976 602.529C510.393 601.984 509.619 601.691 508.823 601.714Z" fill="#263238"/>
<path opacity="0.2" d="M516.27 576.004L511.669 591.231H498.781L503.765 574.789L516.27 576.004Z" fill="black"/>
<path opacity="0.2" d="M435.297 538.522L444.572 547.285L434.25 558.687L424.974 549.924L435.297 538.522Z" fill="black"/>
<path d="M575.654 275.54C575.654 275.54 580.668 278.965 548.889 348.384L498.854 334.462C505.328 314.209 508.838 301.591 510.652 256.859C518.061 257.353 525.424 258.388 532.683 259.957C540.393 261.523 547.982 263.639 555.393 266.288C562.301 269.018 569.064 272.106 575.654 275.54Z" fill="#263238"/>
<path opacity="0.1" d="M575.654 275.54C575.654 275.54 580.668 278.965 548.889 348.384L498.854 334.462C505.328 314.209 508.838 301.591 510.652 256.859C518.061 257.353 525.424 258.388 532.683 259.957C540.393 261.523 547.982 263.639 555.393 266.288C562.301 269.018 569.064 272.106 575.654 275.54Z" fill="white"/>
<path d="M542.032 234.856C541.442 242.61 539.156 256.473 532.697 259.957C532.697 259.957 528.937 272.812 545.247 277.542C559.064 281.53 555.407 266.288 555.407 266.288C547.798 262.063 552.458 254.575 553.932 246.183L542.032 234.856Z" fill="#FFC3BD"/>
<path opacity="0.2" d="M541.958 234.871C541.486 241.083 539.938 251.284 535.971 256.829C540.572 257.289 547.768 255.88 549.892 252.381C550.942 249.928 551.795 247.394 552.443 244.804L541.958 234.871Z" fill="black"/>
<path d="M562.264 223.632C562.264 236.383 562.486 241.795 556.484 248.689C547.444 259.068 531.872 256.236 528.111 243.722C524.734 232.469 525.354 213.505 537.446 207.708C540.103 206.418 543.044 205.832 545.989 206.007C548.935 206.182 551.787 207.112 554.274 208.708C556.761 210.304 558.801 212.513 560.2 215.125C561.598 217.737 562.309 220.666 562.264 223.632Z" fill="#FFC3BD"/>
<path d="M536.06 216.56C543.182 226.568 567.145 240.475 568.753 227.072C570.36 213.668 558.12 200.384 545.999 201.703C533.877 203.023 529.969 208.049 536.06 216.56Z" fill="#263238"/>
<path d="M567.514 235.538C566.978 236.635 566.231 237.614 565.318 238.421C564.404 239.227 563.342 239.845 562.191 240.238C559.109 241.261 557.413 238.533 558.135 235.523C558.799 232.81 561.188 229.014 564.358 229.296C565.047 229.367 565.708 229.611 566.279 230.005C566.85 230.399 567.314 230.931 567.628 231.552C567.942 232.173 568.096 232.863 568.076 233.56C568.056 234.256 567.863 234.936 567.514 235.538Z" fill="#FFC3BD"/>
<path d="M548.889 348.429C548.889 348.429 566.703 420.976 555.024 475.85C547.193 512.605 518.968 586.858 518.968 586.858L496.849 586.294C496.849 586.294 518.216 508.38 522.626 477.733C530.191 425.305 512.185 338.228 512.185 338.228L548.889 348.429Z" fill="#973939"/>
<path opacity="0.2" d="M529.026 358.807L517.996 376.303C521.298 397.048 523.391 417.97 524.263 438.961C539.82 411.042 532.477 373.634 529.026 358.807Z" fill="black"/>
<path d="M522.921 587.97L494.829 587.273L496.717 577.22L524.971 579.355L522.921 587.97Z" fill="#263238"/>
<path d="M537.918 345.463C537.918 345.463 527.596 424.786 505.373 469.86C487.397 506.259 439.426 558.079 439.426 558.079L427.157 545.372C427.157 545.372 459.6 489.031 472.871 464.878C505.638 405.571 476.602 352.417 498.811 334.402L537.918 345.463Z" fill="#973939"/>
<path d="M440.665 559.814L424.842 544.29L430.092 537.114L447.345 555.039L440.665 559.814Z" fill="#263238"/>
<path d="M498.913 331.289L495.418 335.174C495.153 335.47 495.418 335.945 496.038 336.108L548.521 350.712C548.963 350.831 549.405 350.712 549.509 350.445L551.205 345.997C551.322 345.701 550.998 345.33 550.511 345.182L499.842 331.081C499.683 331.032 499.513 331.025 499.35 331.061C499.187 331.097 499.037 331.176 498.913 331.289Z" fill="#973939"/>
<path opacity="0.5" d="M498.913 331.289L495.418 335.174C495.153 335.47 495.418 335.945 496.038 336.108L548.521 350.712C548.963 350.831 549.405 350.712 549.509 350.445L551.205 345.997C551.322 345.701 550.998 345.33 550.511 345.182L499.842 331.081C499.683 331.032 499.513 331.025 499.35 331.061C499.187 331.097 499.037 331.176 498.913 331.289Z" fill="white"/>
<path d="M504.148 338.88L502.791 338.51C502.526 338.435 502.364 338.228 502.423 338.065L504.664 332.401C504.738 332.223 505.018 332.149 505.284 332.223L506.64 332.609C506.906 332.609 507.083 332.875 507.009 333.053L504.767 338.717C504.696 338.808 504.597 338.874 504.485 338.903C504.373 338.933 504.255 338.925 504.148 338.88Z" fill="#973939"/>
<path d="M544.569 350.134L543.212 349.763C542.947 349.689 542.77 349.481 542.843 349.318L545.085 343.64C545.156 343.548 545.256 343.483 545.367 343.454C545.479 343.424 545.597 343.432 545.704 343.476L547.061 343.862C547.326 343.936 547.489 344.129 547.43 344.292L545.188 349.911C545.114 350.134 544.908 350.208 544.569 350.134Z" fill="#973939"/>
<path d="M524.366 344.514L523.009 344.129C522.729 344.129 522.567 343.862 522.626 343.699L524.882 338.02C524.882 337.857 525.221 337.783 525.487 337.857L526.843 338.228C527.123 338.228 527.286 338.51 527.227 338.673L524.971 344.351C524.912 344.514 524.631 344.589 524.366 344.514Z" fill="#973939"/>
<path d="M543.3 228.332C543.3 229.37 542.858 230.245 542.194 230.274C541.531 230.304 540.926 229.518 540.852 228.48C540.779 227.442 541.295 226.568 541.973 226.523C542.651 226.479 543.241 227.279 543.3 228.332Z" fill="#263238"/>
<path d="M531.636 228.999C531.636 230.037 531.193 230.912 530.515 230.956C529.837 231.001 529.261 230.185 529.188 229.147C529.114 228.11 529.63 227.235 530.308 227.205C530.987 227.175 531.636 227.976 531.636 228.999Z" fill="#263238"/>
<path d="M530.633 227.235L528.126 226.671C528.126 226.671 529.497 228.54 530.633 227.235Z" fill="#263238"/>
<path d="M534.836 230.6C534.055 233.012 532.954 235.306 531.562 237.421C532.108 237.766 532.722 237.988 533.361 238.07C534 238.151 534.65 238.092 535.264 237.895L534.836 230.6Z" fill="#ED847E"/>
<path d="M541.001 241.424C540.388 241.583 539.76 241.678 539.128 241.706C539.094 241.71 539.06 241.707 539.028 241.697C538.996 241.687 538.967 241.67 538.941 241.648C538.916 241.625 538.896 241.598 538.883 241.567C538.869 241.536 538.862 241.502 538.862 241.468C538.86 241.435 538.865 241.402 538.876 241.371C538.886 241.339 538.903 241.311 538.925 241.286C538.947 241.261 538.974 241.241 539.003 241.226C539.033 241.212 539.065 241.203 539.098 241.202C540.387 241.149 541.647 240.795 542.776 240.167C543.905 239.539 544.872 238.654 545.601 237.584C545.639 237.537 545.692 237.505 545.751 237.494C545.81 237.484 545.871 237.495 545.923 237.525C545.975 237.556 546.014 237.604 546.033 237.661C546.053 237.718 546.051 237.78 546.029 237.836C544.868 239.631 543.07 240.914 541.001 241.424Z" fill="#263238"/>
<path d="M547.149 220.755C547.066 220.777 546.978 220.776 546.895 220.753C546.812 220.729 546.737 220.684 546.677 220.622C546.141 220.053 545.477 219.621 544.74 219.363C544.004 219.105 543.217 219.029 542.445 219.139C542.315 219.163 542.18 219.136 542.068 219.064C541.957 218.993 541.875 218.882 541.841 218.754C541.814 218.622 541.839 218.486 541.91 218.372C541.982 218.259 542.094 218.178 542.224 218.146C543.158 217.995 544.115 218.073 545.013 218.372C545.912 218.672 546.725 219.184 547.385 219.866C547.476 219.965 547.527 220.094 547.527 220.229C547.527 220.364 547.476 220.494 547.385 220.592C547.32 220.665 547.239 220.72 547.149 220.755Z" fill="#263238"/>
<path d="M526.593 222.253C526.515 222.3 526.426 222.325 526.335 222.325C526.244 222.325 526.155 222.3 526.077 222.253C525.972 222.173 525.903 222.056 525.884 221.926C525.865 221.795 525.897 221.663 525.973 221.556C526.517 220.778 527.239 220.143 528.079 219.704C528.918 219.266 529.85 219.036 530.796 219.036C530.861 219.039 530.926 219.056 530.985 219.085C531.045 219.114 531.098 219.154 531.142 219.204C531.186 219.254 531.219 219.311 531.241 219.374C531.262 219.437 531.271 219.503 531.267 219.569C531.264 219.636 531.247 219.7 531.218 219.76C531.189 219.82 531.149 219.873 531.1 219.917C531.051 219.961 530.993 219.995 530.931 220.017C530.868 220.039 530.802 220.048 530.737 220.044C529.959 220.056 529.196 220.254 528.509 220.619C527.822 220.985 527.231 221.51 526.784 222.149C526.729 222.198 526.664 222.233 526.593 222.253Z" fill="#263238"/>
<path d="M511.831 275.97C510.548 277.927 509.383 279.499 508.07 281.16C506.758 282.82 505.475 284.377 504.118 285.919C501.397 289.018 498.502 291.959 495.447 294.726C492.41 297.549 489.188 300.164 485.803 302.555C484.137 303.8 482.353 304.882 480.612 306.009L477.884 307.581L476.528 308.352C476.026 308.619 475.377 308.975 474.758 309.227C472.025 310.47 468.988 310.872 466.028 310.383C463.234 309.853 460.623 308.607 458.448 306.765C456.612 305.225 454.995 303.439 453.641 301.457C452.392 299.658 451.283 297.764 450.323 295.794C446.825 288.326 444.411 280.392 443.156 272.234L449.055 270.87C450.279 274.399 451.65 278.061 453.199 281.486C454.649 284.91 456.36 288.216 458.316 291.375C459.947 294.234 462.109 296.751 464.686 298.789C465.544 299.449 466.563 299.864 467.635 299.99C468.573 300.03 469.503 299.804 470.319 299.337C470.604 299.191 470.88 299.028 471.145 298.848L472.295 298.107L474.581 296.624C476.056 295.527 477.53 294.504 479.005 293.332C481.909 291.046 484.695 288.611 487.352 286.038C490.05 283.473 492.572 280.73 495.005 277.913C496.229 276.504 497.423 275.081 498.574 273.628C499.724 272.175 500.874 270.662 501.803 269.328L511.831 275.97Z" fill="#FFC3BD"/>
<path d="M450.191 276.341L451.489 262.508L439.116 267.593C439.116 267.593 440.591 274.547 445.31 277.038L450.191 276.341Z" fill="#FFC3BD"/>
<path d="M447.536 255.035L437.966 252.944L439.116 267.593L451.488 262.508L447.536 255.035Z" fill="#FFC3BD"/>
<path d="M510.667 256.859C504.222 256.859 488.709 281.59 488.709 281.59L499.666 293.006C499.666 293.006 520.311 279.01 521.122 270.766C521.83 263.679 518.866 256.933 510.667 256.859Z" fill="#263238"/>
<path opacity="0.1" d="M510.667 256.859C504.222 256.859 488.709 281.59 488.709 281.59L499.666 293.006C499.666 293.006 520.311 279.01 521.122 270.766C521.83 263.679 518.866 256.933 510.667 256.859Z" fill="white"/>
<path d="M500.668 293.57C500.447 293.791 500.147 293.916 499.835 293.916C499.522 293.916 499.223 293.791 499.002 293.57L487.927 282.657C487.706 282.435 487.583 282.134 487.583 281.819C487.583 281.505 487.706 281.204 487.927 280.982C488.151 280.759 488.453 280.634 488.768 280.634C489.082 280.634 489.384 280.759 489.608 280.982L500.668 291.879C500.89 292.104 501.014 292.408 501.014 292.724C501.014 293.041 500.89 293.345 500.668 293.57Z" fill="#973939"/>
<path d="M431.359 571.986C431.764 571.976 432.153 571.83 432.465 571.571C432.613 571.476 432.732 571.34 432.807 571.18C432.883 571.021 432.913 570.843 432.893 570.667C432.76 569.066 428.72 566.886 428.248 566.634C428.208 566.609 428.162 566.596 428.115 566.596C428.068 566.596 428.022 566.609 427.982 566.634C427.941 566.663 427.91 566.705 427.894 566.753C427.879 566.801 427.878 566.853 427.894 566.901C428.351 568.532 429.368 571.349 430.843 571.868C431.007 571.938 431.181 571.978 431.359 571.986ZM428.41 567.375C429.885 568.176 432.185 569.718 432.259 570.711C432.269 570.801 432.252 570.891 432.21 570.971C432.167 571.05 432.102 571.115 432.023 571.156C431.874 571.297 431.69 571.396 431.491 571.443C431.291 571.489 431.083 571.483 430.887 571.423C430.091 571.126 429.177 569.629 428.41 567.375Z" fill="#973939"/>
<path d="M431.905 568.013C432.543 568.062 433.18 567.9 433.719 567.553C433.896 567.406 434.017 567.201 434.06 566.973C434.103 566.746 434.066 566.51 433.954 566.308C433.877 566.094 433.751 565.902 433.587 565.745C433.424 565.588 433.226 565.471 433.011 565.403C431.285 564.795 428.071 566.56 427.938 566.634C427.9 566.658 427.868 566.69 427.845 566.729C427.821 566.768 427.808 566.811 427.805 566.856C427.805 566.9 427.816 566.944 427.836 566.982C427.857 567.021 427.887 567.054 427.923 567.079C429.164 567.686 430.525 568.005 431.905 568.013ZM432.155 565.774C432.391 565.773 432.626 565.814 432.848 565.893C432.995 565.936 433.128 566.014 433.239 566.119C433.349 566.225 433.433 566.356 433.483 566.5C433.645 566.886 433.483 567.064 433.394 567.168C432.642 567.805 429.988 567.449 428.616 566.856C429.714 566.266 430.917 565.899 432.155 565.774Z" fill="#973939"/>
<path d="M515.547 604.175C516.578 604.252 517.607 604.009 518.496 603.478C518.725 603.306 518.911 603.082 519.039 602.825C519.167 602.567 519.234 602.283 519.234 601.996C519.252 601.847 519.229 601.695 519.167 601.559C519.104 601.423 519.005 601.307 518.88 601.225C517.508 600.276 511.993 602.826 511.374 603.123C511.323 603.145 511.282 603.183 511.255 603.231C511.229 603.279 511.218 603.335 511.226 603.389C511.232 603.44 511.253 603.488 511.288 603.525C511.322 603.563 511.368 603.588 511.418 603.597C512.77 603.935 514.154 604.129 515.547 604.175ZM517.965 601.551C518.18 601.537 518.394 601.583 518.585 601.684C518.658 601.684 518.732 601.818 518.717 602.025C518.715 602.229 518.664 602.43 518.569 602.61C518.474 602.791 518.338 602.946 518.172 603.063C516.933 604.012 513.91 603.612 512.273 603.315C514.066 602.429 515.987 601.834 517.965 601.551Z" fill="#973939"/>
<path d="M511.463 603.656H511.551C513.218 602.974 516.683 600.172 516.491 598.778C516.491 598.482 516.255 598.111 515.503 598.022C512.554 597.681 511.271 603.123 511.212 603.36C511.203 603.406 511.207 603.453 511.223 603.498C511.238 603.542 511.265 603.581 511.301 603.612C511.349 603.641 511.406 603.657 511.463 603.656ZM515.238 598.497H515.415C515.931 598.497 515.96 598.749 515.975 598.823C516.093 599.712 513.616 601.981 511.817 602.93C512.215 601.669 513.336 598.497 515.238 598.497Z" fill="#973939"/>
<path d="M542.268 226.553L539.761 225.989C539.761 225.989 541.133 227.857 542.268 226.553Z" fill="#263238"/>
<path d="M428.859 612.772L260.707 627.658C240.384 629.362 221.703 613.468 220.012 593.039L184.85 167.169C184.055 157.361 187.165 147.633 193.499 140.124C199.832 132.615 208.869 127.939 218.625 127.122L387.591 112.89C397.353 112.07 407.037 115.182 414.513 121.54C421.989 127.899 426.644 136.984 427.455 146.798L462.618 572.668C463.021 577.528 462.468 582.422 460.989 587.068C459.511 591.715 457.136 596.023 454 599.748C450.865 603.472 447.031 606.54 442.717 608.775C438.403 611.009 433.694 612.368 428.859 612.772Z" fill="#263238"/>
<path d="M388.924 130.794L356.155 133.541C354.013 133.771 352.047 134.842 350.684 136.521C349.322 138.2 348.674 140.351 348.88 142.507L349.398 148.476C349.61 150.631 348.966 152.784 347.605 154.464C346.244 156.144 344.277 157.214 342.134 157.441L278.264 162.798C276.103 162.93 273.978 162.195 272.357 160.754C270.735 159.313 269.749 157.283 269.614 155.111L269.096 149.141C268.946 146.973 267.956 144.952 266.338 143.512C264.72 142.072 262.604 141.329 260.445 141.442L248.92 142.463L220.249 144.87C216.858 145.162 213.556 146.123 210.533 147.698C207.51 149.273 204.825 151.43 202.631 154.048C200.437 156.665 198.776 159.691 197.745 162.953C196.713 166.214 196.331 169.648 196.619 173.057L230.945 588.744C231.526 595.611 234.789 601.965 240.02 606.415C245.252 610.864 252.026 613.048 258.859 612.487L427.504 598.343C434.35 597.756 440.685 594.461 445.119 589.182C449.553 583.903 451.721 577.072 451.149 570.19L416.823 154.503C416.234 147.645 412.969 141.303 407.742 136.86C402.514 132.418 395.749 130.237 388.924 130.794Z" fill="white"/>
<path d="M388.792 130.792L356.045 133.536C353.904 133.766 351.94 134.836 350.578 136.513C349.217 138.191 348.569 140.34 348.775 142.494L349.293 148.459C349.505 150.612 348.861 152.763 347.501 154.441C346.14 156.12 344.175 157.189 342.034 157.416L278.206 162.769C276.047 162.901 273.923 162.166 272.303 160.726C270.682 159.286 269.697 157.259 269.562 155.088L269.044 149.123C268.895 146.957 267.905 144.937 266.288 143.499C264.671 142.06 262.556 141.317 260.399 141.431L248.882 142.45L220.23 144.855C216.841 145.148 213.542 146.108 210.521 147.681C207.5 149.255 204.816 151.411 202.624 154.026C200.431 156.641 198.772 159.664 197.741 162.923C196.71 166.182 196.328 169.613 196.616 173.019L201.027 226.415L421.004 206.945L416.679 154.552C416.108 147.686 412.852 141.329 407.625 136.876C402.397 132.422 395.625 130.234 388.792 130.792Z" fill="#C53F3F"/>
<path d="M216.153 206.912C216.069 206.919 215.985 206.908 215.905 206.88C215.825 206.853 215.752 206.809 215.69 206.751L210.742 201.792C210.638 201.691 210.573 201.555 210.561 201.41C210.548 201.264 210.588 201.119 210.674 201.002L214.742 195.969C214.791 195.909 214.852 195.859 214.92 195.822C214.989 195.784 215.064 195.761 215.141 195.753C215.218 195.745 215.296 195.753 215.371 195.775C215.445 195.798 215.514 195.835 215.574 195.884C215.635 195.933 215.685 195.994 215.721 196.063C215.758 196.131 215.781 196.207 215.789 196.284C215.797 196.362 215.789 196.441 215.767 196.515C215.745 196.59 215.708 196.66 215.659 196.72L211.98 201.338L216.551 205.902C216.659 206.016 216.719 206.168 216.717 206.326C216.716 206.484 216.652 206.635 216.541 206.747C216.435 206.846 216.298 206.905 216.153 206.912Z" fill="white"/>
<path d="M221.581 201.142L211.414 202.041C211.259 202.054 211.104 202.006 210.985 201.905C210.865 201.804 210.79 201.66 210.777 201.504C210.763 201.348 210.812 201.193 210.912 201.073C211.013 200.953 211.156 200.877 211.312 200.864L221.479 199.965C221.634 199.951 221.789 200 221.908 200.101C222.028 200.201 222.103 200.346 222.116 200.502C222.13 200.658 222.081 200.813 221.981 200.933C221.88 201.053 221.737 201.128 221.581 201.142Z" fill="white"/>
<path d="M328.102 191.445C328.117 191.61 311.876 193.184 291.847 194.95C271.818 196.716 255.553 198.009 255.539 197.844C255.525 197.68 271.786 196.068 291.721 194.31C311.656 192.552 328.088 191.281 328.102 191.445Z" fill="white"/>
<path d="M309.06 201.008C309.075 201.172 297.243 202.358 282.656 203.644C268.068 204.931 256.212 205.834 256.198 205.67C256.183 205.505 268.003 204.321 282.602 203.033C297.202 201.746 309.046 200.843 309.06 201.008Z" fill="white"/>
<path d="M395.577 180.505C395.602 180.798 395.541 181.093 395.4 181.352C395.258 181.611 395.044 181.822 394.784 181.958C394.523 182.095 394.229 182.15 393.937 182.119C393.645 182.087 393.37 181.968 393.145 181.779C392.92 181.589 392.756 181.337 392.674 181.054C392.592 180.77 392.596 180.469 392.684 180.188C392.772 179.906 392.941 179.657 393.17 179.472C393.399 179.288 393.677 179.175 393.97 179.149C394.362 179.115 394.751 179.238 395.053 179.492C395.354 179.746 395.543 180.11 395.577 180.505Z" fill="white"/>
<path d="M396.01 185.461C396.036 185.755 395.974 186.05 395.833 186.309C395.691 186.567 395.477 186.778 395.217 186.915C394.956 187.051 394.662 187.107 394.37 187.075C394.078 187.043 393.803 186.925 393.578 186.735C393.353 186.546 393.189 186.293 393.107 186.01C393.025 185.727 393.029 185.425 393.117 185.144C393.205 184.862 393.375 184.614 393.603 184.429C393.832 184.244 394.111 184.131 394.403 184.106C394.795 184.071 395.184 184.194 395.486 184.448C395.787 184.702 395.976 185.067 396.01 185.461Z" fill="white"/>
<path d="M395.094 192.034C395.91 191.962 396.514 191.238 396.443 190.417C396.371 189.596 395.652 188.989 394.836 189.062C394.019 189.134 393.415 189.858 393.486 190.679C393.558 191.499 394.277 192.106 395.094 192.034Z" fill="white"/>
<path d="M420.121 207.079L200.603 226.515L219.497 444.184L439.014 424.748L420.121 207.079Z" fill="white"/>
<path d="M393.009 550.442L254.017 562.736C246.303 563.418 240.595 570.252 241.268 578L241.339 578.813C242.012 586.561 248.811 592.289 256.525 591.607L395.517 579.313C403.231 578.631 408.939 571.797 408.266 564.049L408.195 563.236C407.522 555.488 400.723 549.76 393.009 550.442Z" fill="#EBEBEB"/>
<path d="M428.635 576.125C436.403 575.437 442.151 568.548 441.473 560.738C440.795 552.927 433.948 547.153 426.18 547.841C418.412 548.529 412.664 555.418 413.342 563.228C414.02 571.039 420.867 576.813 428.635 576.125Z" fill="#FF725E"/>
<path d="M424.14 561.24L423.797 557.288C423.792 557.219 423.805 557.15 423.833 557.087C423.862 557.024 423.906 556.969 423.961 556.928C424.016 556.886 424.081 556.859 424.149 556.849C424.218 556.839 424.287 556.847 424.352 556.871L434.961 561.018C435.033 561.044 435.097 561.09 435.145 561.151C435.192 561.212 435.221 561.286 435.227 561.363C435.234 561.44 435.219 561.518 435.182 561.587C435.146 561.655 435.091 561.712 435.024 561.75L425.279 567.557C425.22 567.592 425.153 567.611 425.084 567.614C425.015 567.616 424.947 567.601 424.885 567.569C424.823 567.538 424.771 567.492 424.732 567.435C424.693 567.378 424.668 567.312 424.661 567.243L424.369 563.882C424.361 563.793 424.382 563.705 424.429 563.63C424.476 563.555 424.546 563.497 424.629 563.466L428.267 562.075L424.503 561.611C424.41 561.599 424.324 561.555 424.258 561.488C424.193 561.421 424.151 561.333 424.14 561.24Z" fill="white"/>
<path d="M215.888 242.472C215.721 242.36 215.593 242.199 215.522 242.011C215.45 241.822 215.439 241.616 215.49 241.421C215.54 241.226 215.65 241.051 215.804 240.921C215.958 240.792 216.148 240.714 216.349 240.698L399.301 224.51C399.958 224.452 400.621 224.525 401.251 224.724C401.88 224.923 402.464 225.245 402.97 225.671C403.475 226.097 403.893 226.619 404.197 227.207C404.502 227.795 404.688 228.438 404.746 229.099L407.893 265.334C407.95 265.995 407.878 266.66 407.679 267.293C407.48 267.926 407.16 268.513 406.735 269.022C406.311 269.53 405.791 269.949 405.205 270.256C404.62 270.563 403.98 270.75 403.322 270.809L236.179 285.597C234.851 285.715 233.531 285.297 232.51 284.437C231.489 283.576 230.85 282.343 230.734 281.009L228.159 251.361C228.147 251.219 228.103 251.081 228.031 250.958C227.959 250.835 227.86 250.729 227.743 250.65L215.888 242.472Z" fill="#EBEBEB"/>
<path d="M258.229 255.445C258.243 255.61 286.657 253.247 321.684 250.158C356.71 247.07 385.111 244.424 385.097 244.26C385.083 244.095 356.668 246.447 321.629 249.536C286.591 252.625 258.213 255.269 258.229 255.445Z" fill="#263238"/>
<path d="M258.995 264.225C259.01 264.389 287.423 262.026 322.45 258.938C357.477 255.85 385.878 253.204 385.864 253.039C385.849 252.875 357.436 255.238 322.397 258.327C287.358 261.416 258.981 264.06 258.995 264.225Z" fill="#263238"/>
<path d="M237.522 291.476L364.414 280.25C366.998 280.022 369.276 281.941 369.502 284.537L371.21 304.201C371.435 306.798 369.523 309.088 366.939 309.316L240.047 320.542C237.463 320.771 235.185 318.851 234.959 316.255L233.251 296.591C233.025 293.995 234.938 291.704 237.522 291.476Z" fill="#EBEBEB"/>
<path d="M248.769 304.283C248.784 304.448 272.812 302.471 302.421 299.86C332.03 297.25 356.08 294.987 356.066 294.823C356.052 294.659 332.036 296.634 302.403 299.247C272.77 301.86 248.755 304.119 248.769 304.283Z" fill="#263238"/>
<path d="M472.192 103.639C471.166 103.631 470.175 103.269 469.399 102.617C468.622 101.966 468.109 101.067 467.951 100.082C465.972 87.4586 458.919 76.1114 448.336 68.5282C437.753 60.9451 424.505 57.7446 411.496 59.6283C410.44 59.6552 409.41 59.3062 408.601 58.647C407.791 57.9878 407.258 57.064 407.102 56.0496C406.946 55.0353 407.178 54.0006 407.753 53.1406C408.329 52.2805 409.208 51.6545 410.226 51.3806C425.487 49.1721 441.027 52.9292 453.438 61.828C465.85 70.7268 474.119 84.0408 476.433 98.8502C476.59 99.9405 476.301 101.047 475.627 101.932C474.952 102.818 473.947 103.41 472.827 103.583C472.618 103.622 472.405 103.641 472.192 103.639Z" fill="#C53F3F"/>
<path d="M451.108 106.812C450.076 106.804 449.08 106.446 448.298 105.8C447.516 105.154 446.998 104.263 446.837 103.286C445.714 96.1812 441.701 89.7938 435.676 85.5245C429.651 81.2551 422.108 79.4522 414.699 80.5113C413.634 80.542 412.594 80.1972 411.776 79.5423C410.958 78.8873 410.418 77.9674 410.259 76.9566C410.1 75.9458 410.332 74.9141 410.912 74.0564C411.492 73.1988 412.379 72.5747 413.406 72.302C423.084 70.9151 432.94 73.2678 440.811 78.8439C448.683 84.42 453.927 92.764 455.394 102.045C455.557 103.133 455.267 104.238 454.587 105.122C453.908 106.006 452.893 106.598 451.762 106.77C451.545 106.798 451.327 106.812 451.108 106.812Z" fill="#C53F3F"/>
<path d="M429.122 109.962C428.112 109.954 427.137 109.599 426.373 108.96C425.609 108.322 425.104 107.442 424.949 106.477C424.826 105.674 424.54 104.903 424.108 104.208C423.676 103.512 423.105 102.906 422.43 102.424C421.755 101.943 420.988 101.594 420.173 101.4C419.358 101.205 418.512 101.168 417.682 101.291C416.652 101.305 415.652 100.957 414.867 100.312C414.082 99.6674 413.565 98.7695 413.413 97.7848C413.26 96.8 413.482 95.7953 414.038 94.9567C414.593 94.1181 415.444 93.5025 416.433 93.224C418.365 92.9423 420.335 93.0327 422.231 93.4899C424.126 93.947 425.909 94.762 427.478 95.8879C429.046 97.0138 430.369 98.4283 431.37 100.05C432.37 101.672 433.03 103.469 433.309 105.338C433.464 106.406 433.179 107.491 432.516 108.358C431.852 109.225 430.863 109.806 429.761 109.975C429.548 109.991 429.334 109.986 429.122 109.962Z" fill="#C53F3F"/>
<path d="M101.256 565.239L83.125 589.229L74.2211 612.372C74.068 612.766 73.8364 613.124 73.5406 613.425C73.2447 613.725 72.8909 613.962 72.5008 614.119C72.1107 614.277 71.6927 614.353 71.2725 614.342C70.8523 614.33 70.4388 614.233 70.0574 614.055C69.6126 613.849 69.2239 613.538 68.9246 613.148C68.6254 612.757 68.4244 612.3 68.3389 611.815C67.1856 605.548 63.1719 582.451 64.602 580.768C66.2513 578.818 82.0639 554.178 82.0639 554.178L101.256 565.239Z" fill="#C53F3F"/>
<g opacity="0.6">
<path d="M70.0573 614.055L65.7898 579.12L65.0402 580.153C64.3965 581.046 64.0898 582.14 64.1751 583.24C64.3943 586.188 65.2016 594.301 68.258 611.757C68.3441 612.263 68.5535 612.74 68.8675 613.145C69.1815 613.55 69.5902 613.871 70.0573 614.078V614.055Z" fill="white"/>
</g>
<g opacity="0.6">
<path d="M76.4347 574.93C76.5866 575.374 76.5666 575.86 76.3784 576.29C76.1903 576.721 75.848 577.064 75.4197 577.251C74.9821 577.423 74.4946 577.415 74.0629 577.228C73.6312 577.041 73.29 576.691 73.113 576.253C72.9698 575.788 73.001 575.287 73.2009 574.844C73.4008 574.401 73.7553 574.048 74.1972 573.85C74.6617 573.735 75.1524 573.805 75.5671 574.045C75.9818 574.285 76.2885 574.677 76.4232 575.139" fill="white"/>
</g>
<path d="M72.1911 599.303C73.3115 598.964 74.4863 598.846 75.6512 598.955C76.8103 599.245 77.9029 599.757 78.8691 600.464C78.8691 600.464 78.7653 600 78.2463 599.512C77.5624 598.892 76.7119 598.488 75.8012 598.352C74.8878 598.182 73.9452 598.287 73.0908 598.653C72.4449 598.944 72.145 599.303 72.1911 599.303Z" fill="#263238"/>
<path d="M71.5669 603.876C72.5447 603.99 73.5151 604.161 74.4734 604.387C75.3632 604.808 76.2261 605.285 77.0569 605.814C77.2184 605.733 76.4225 604.364 74.681 603.772C74.1922 603.535 73.6535 603.42 73.1112 603.438C72.5688 603.456 72.0389 603.607 71.5669 603.876Z" fill="#263238"/>
<path d="M71.9941 592.815C73.5151 592.862 75.0303 593.025 76.5269 593.303C77.9742 593.787 79.3817 594.385 80.7366 595.09C79.7236 593.821 78.2909 592.96 76.6998 592.664C75.1646 592.141 73.4932 592.195 71.9941 592.815Z" fill="#263238"/>
<path d="M76.9194 585.051C76.9194 585.248 78.6149 585.666 80.3795 586.873C82.1442 588.08 83.2399 589.508 83.4013 589.391C82.8984 588.084 81.9555 586.996 80.7371 586.316C79.6457 585.467 78.2983 585.021 76.9194 585.051Z" fill="#263238"/>
<path d="M82.0513 577.878C83.353 578.302 84.5909 578.903 85.7305 579.665C86.7499 580.588 87.6351 581.651 88.3602 582.822C88.4409 582.822 88.3602 582.3 88.0718 581.569C87.6257 580.621 86.9662 579.79 86.1457 579.143C85.3239 578.493 84.3587 578.051 83.3315 577.855C82.5472 577.715 82.0513 577.797 82.0513 577.878Z" fill="#263238"/>
<path d="M86.6773 578.273C86.6773 578.273 87.0003 578.006 87.3694 577.379C87.9024 576.471 88.2476 575.465 88.3843 574.419C88.5561 573.667 88.475 572.88 88.1536 572.179C88.0263 571.958 87.8334 571.781 87.6019 571.675C87.3703 571.569 87.1116 571.538 86.8619 571.587C86.3908 571.712 85.9808 572.005 85.7085 572.411C85.1758 573.273 84.957 574.293 85.0895 575.299C85.2221 576.305 85.6977 577.233 86.4351 577.924C87.179 578.593 88.1036 579.024 89.0914 579.162C90.0793 579.301 91.0857 579.141 91.9828 578.702C92.2094 578.585 92.4089 578.421 92.568 578.221C92.727 578.021 92.8421 577.79 92.9055 577.541C92.9428 577.286 92.8994 577.025 92.7814 576.796C92.6634 576.567 92.4769 576.381 92.2481 576.265C91.5573 575.969 90.8028 575.857 90.0567 575.94C89.0179 575.992 87.9958 576.224 87.0349 576.624C86.3544 576.915 86.0315 577.17 86.0545 577.205C87.3445 576.735 88.6978 576.465 90.0682 576.404C90.7201 576.363 91.3723 576.478 91.9713 576.741C92.0981 576.802 92.2016 576.903 92.2661 577.028C92.3306 577.154 92.3526 577.297 92.3288 577.437C92.2745 577.593 92.1892 577.736 92.0782 577.858C91.9671 577.979 91.8327 578.077 91.6829 578.145C90.8977 578.499 90.0279 578.618 89.1772 578.488C88.3265 578.359 87.5308 577.986 86.8849 577.414C86.2707 576.829 85.8696 576.053 85.7462 575.211C85.6228 574.369 85.7842 573.51 86.2045 572.771C86.3877 572.479 86.6707 572.264 87.0003 572.168C87.137 572.14 87.279 572.155 87.4069 572.211C87.5348 572.267 87.6425 572.361 87.7154 572.481C87.9822 573.077 88.0626 573.741 87.946 574.384C87.7518 575.745 87.3224 577.061 86.6773 578.273Z" fill="#263238"/>
<path d="M120.136 578.029L121.981 602.542C121.981 602.542 97.7607 610.863 97.7607 615.436L145.152 615.32L143.838 577.019L120.136 578.029Z" fill="#C53F3F"/>
<g opacity="0.6">
<path d="M136.538 599.884C136.999 600.007 137.398 600.296 137.659 600.696C137.921 601.097 138.027 601.58 137.957 602.054C137.854 602.522 137.577 602.932 137.182 603.2C136.787 603.468 136.305 603.573 135.835 603.493C135.343 603.364 134.917 603.054 134.642 602.624C134.366 602.194 134.261 601.676 134.347 601.172C134.501 600.707 134.825 600.318 135.254 600.086C135.682 599.853 136.183 599.793 136.654 599.918" fill="white"/>
</g>
<g opacity="0.6">
<path d="M145.095 615.32L144.957 611.467L99.2027 613.231C98.7216 613.484 98.3112 613.855 98.009 614.309C97.7068 614.763 97.5224 615.287 97.4727 615.831L145.095 615.32Z" fill="white"/>
</g>
<path d="M121.197 602.321C121.197 602.553 122.35 602.623 123.503 603.319C124.657 604.015 125.314 604.979 125.522 604.874C125.729 604.77 125.326 603.447 123.907 602.623C122.488 601.799 121.139 602.112 121.197 602.321Z" fill="#263238"/>
<path d="M116.319 604.596C116.319 604.816 117.288 605.176 118.118 606.128C118.949 607.08 119.202 608.113 119.433 608.089C119.664 608.066 119.756 606.755 118.718 605.582C117.68 604.41 116.319 604.375 116.319 604.596Z" fill="#263238"/>
<path d="M113.735 610.689C113.943 610.689 114.219 609.529 113.574 608.298C112.928 607.068 111.832 606.592 111.74 606.789C111.647 606.987 112.351 607.637 112.893 608.67C113.435 609.703 113.504 610.666 113.735 610.689Z" fill="#263238"/>
<path d="M121.392 596.692C121.496 596.901 122.546 596.541 123.861 596.576C125.175 596.611 126.167 596.982 126.317 596.785C126.467 596.587 125.418 595.787 123.872 595.763C122.327 595.74 121.277 596.518 121.392 596.692Z" fill="#263238"/>
<g opacity="0.3">
<path d="M120.506 582.892L120.829 587.256L144.093 586.107L143.966 582.172L120.506 582.892Z" fill="black"/>
</g>
<path d="M121.117 591.748C121.901 591.921 122.717 591.881 123.481 591.631C124.331 591.446 125.156 591.157 125.938 590.773C126.399 590.544 126.843 590.28 127.264 589.983C127.529 589.83 127.767 589.634 127.968 589.403C128.103 589.225 128.177 589.007 128.177 588.782C128.177 588.558 128.103 588.339 127.968 588.161C127.847 588.004 127.691 587.877 127.513 587.79C127.335 587.704 127.139 587.66 126.941 587.662C126.64 587.68 126.341 587.734 126.053 587.825C125.553 587.972 125.067 588.162 124.6 588.393C123.813 588.788 123.093 589.305 122.466 589.925C121.417 590.993 121.071 591.875 121.151 591.922C121.232 591.968 121.763 591.237 122.847 590.355C123.483 589.841 124.181 589.408 124.923 589.066C125.356 588.873 125.803 588.714 126.261 588.591C126.757 588.44 127.183 588.417 127.322 588.591C127.46 588.765 127.379 588.707 127.322 588.858C127.171 589.025 126.996 589.17 126.803 589.287C126.409 589.567 126 589.826 125.58 590.065C124.843 590.46 124.071 590.787 123.273 591.04C122.537 591.219 121.816 591.456 121.117 591.748Z" fill="#263238"/>
<path d="M121.428 592.061C121.849 591.365 122.035 590.551 121.959 589.74C121.966 588.855 121.822 587.975 121.532 587.14C121.363 586.642 121.143 586.164 120.874 585.712C120.737 585.4 120.521 585.128 120.248 584.925C119.975 584.721 119.655 584.593 119.317 584.552C119.107 584.569 118.905 584.644 118.735 584.769C118.564 584.894 118.43 585.064 118.349 585.26C118.242 585.543 118.172 585.84 118.141 586.142C118.078 586.679 118.098 587.223 118.199 587.755C118.382 588.646 118.778 589.478 119.352 590.181C120.321 591.341 121.301 591.608 121.313 591.539C121.324 591.469 120.563 590.993 119.813 589.844C119.375 589.176 119.087 588.419 118.971 587.627C118.903 587.169 118.903 586.704 118.971 586.246C118.971 585.735 119.202 585.318 119.387 585.364C119.571 585.41 120.044 585.712 120.252 586.118C120.499 586.521 120.712 586.944 120.886 587.384C121.18 588.127 121.367 588.908 121.44 589.705C121.509 591.179 121.301 592.038 121.428 592.061Z" fill="#263238"/>
<path d="M104.797 368.394C104.797 368.394 93.6553 389.913 93.6553 407.345C93.6553 411.025 114.796 585.213 114.796 585.213L146.825 582.509L132.777 422.202L137.806 387.893L104.797 368.394Z" fill="#263238"/>
<path d="M176.109 387.464C176.109 387.464 168.623 450.37 165.106 474.616C161.438 499.976 154.206 504.793 154.206 504.793L96.3421 579.317L73.667 558.762L124.415 484.191C124.415 484.191 138.324 385.444 137.84 387.858C137.356 390.272 176.109 387.464 176.109 387.464Z" fill="#263238"/>
<path d="M153.041 505.825C152.889 506.104 152.707 506.365 152.498 506.603L150.895 508.773L144.817 516.643C139.708 523.386 132.707 532.601 124.968 542.792C117.229 552.982 110.182 562.244 104.968 568.825C102.362 572.133 100.228 574.767 98.7172 576.578L96.9757 578.644C96.7792 578.889 96.5673 579.122 96.3413 579.34C96.4908 579.063 96.6687 578.803 96.8719 578.563L98.5212 576.415L104.611 568.546C109.72 561.803 116.721 552.588 124.46 542.397C132.199 532.207 139.246 522.945 144.46 516.364C147.066 513.056 149.2 510.422 150.699 508.611L152.452 506.545C152.629 506.29 152.826 506.049 153.041 505.825Z" fill="#455A64"/>
<path d="M120.378 262.068C120.378 262.068 109.179 268.835 105.811 274.835C102.443 280.836 84.5433 324.743 85.2815 331.927C86.0196 339.111 102.824 343.533 102.824 343.533L120.378 320.622L109.917 313.485L120.378 300.334V262.068Z" fill="#973939"/>
<path d="M138.463 256.23L120.378 262.033C120.378 262.033 112.166 340.539 108.06 351.809C105.399 359.706 103.642 367.884 102.824 376.182C102.824 376.182 105.13 398.13 130.504 401.136C155.878 404.142 176.108 389.077 176.108 389.077C176.108 389.077 191.298 350.346 195.773 317.268C200.248 284.19 197.157 265.353 197.157 265.353L169.338 255.302L138.463 256.23Z" fill="#973939"/>
<path d="M192.048 267.709C191.264 268.521 180.099 275.973 176.362 288.74C172.625 301.507 168.531 314.657 168.531 314.657L153.964 316.537L162.176 350.346C162.176 350.346 179.73 348.466 189.43 332.31C199.13 316.154 205.104 296.249 205.104 296.249C205.104 296.249 203.87 255.325 192.048 267.709Z" fill="#973939"/>
<path d="M102.824 343.58C102.824 343.58 143.491 351.762 158.243 334.144L153.964 319.195C153.964 319.195 127.102 325.59 118.706 322.839L102.824 343.58Z" fill="#FFBE9D"/>
<path d="M158.958 315.899C158.958 315.899 165.152 301.971 165.971 301.797C166.79 301.623 178.658 297.398 178.658 297.398C179.023 298.374 179.023 299.451 178.658 300.427L183.029 301.019C183.029 301.019 182.383 303.677 180.93 304.048L182.476 305.418C181.701 306.457 180.704 307.306 179.558 307.902C179.121 308.122 178.639 308.237 178.15 308.237C177.662 308.237 177.18 308.122 176.743 307.902C176.743 307.902 177.285 308.9 174.829 310.455C172.372 312.01 168.174 314.308 168.174 314.308L158.958 315.899Z" fill="#FFBE9D"/>
<path d="M158.912 315.933C159.166 315.365 165.117 302.006 165.936 301.82C166.755 301.634 178.623 297.468 178.692 297.433C179.037 298.405 179.037 299.467 178.692 300.439L182.971 300.996C182.971 301.101 182.325 303.608 180.907 304.025L182.441 305.383C181.659 306.423 180.659 307.275 179.511 307.879C179.077 308.079 178.605 308.183 178.127 308.183C177.649 308.183 177.177 308.079 176.743 307.879C176.812 308.146 176.87 309.039 174.782 310.397C172.349 311.929 168.174 314.227 168.139 314.239L158.912 315.933ZM178.704 297.445C178.046 297.677 166.767 301.646 166.017 301.832C165.267 302.017 161.207 311.036 159.097 315.852L168.22 314.239C168.381 314.146 172.476 311.918 174.863 310.386C177.251 308.854 176.778 307.879 176.766 307.879V307.774L176.858 307.832C177.293 308.047 177.77 308.159 178.254 308.159C178.738 308.159 179.215 308.047 179.65 307.832C180.782 307.236 181.771 306.396 182.544 305.372L180.964 303.979H181.022C182.36 303.642 183.006 301.321 183.087 301.008L178.796 300.462C179.128 299.478 179.095 298.406 178.704 297.445Z" fill="#EB996E"/>
<path d="M178.346 300.474C175.822 301.697 173.208 302.721 170.526 303.538C169.442 303.932 168.358 304.234 167.505 304.698C166.748 305.067 166.123 305.663 165.717 306.405C165.013 307.705 164.748 308.633 164.633 308.598C164.677 307.752 164.91 306.927 165.313 306.184C165.719 305.321 166.39 304.613 167.228 304.165C168.231 303.707 169.264 303.32 170.319 303.004C172.925 301.952 175.609 301.106 178.346 300.474Z" fill="#EB996E"/>
<path d="M181.125 304.002C180.462 304.399 179.73 304.667 178.969 304.791C177.596 305.163 175.67 305.476 173.629 306.033C171.88 306.484 170.235 307.273 168.785 308.354C167.7 309.202 167.216 309.945 167.135 309.887C167.054 309.828 167.424 308.993 168.496 308.006C169.924 306.768 171.624 305.889 173.456 305.441C175.555 304.873 177.492 304.629 178.865 304.373C179.606 304.181 180.362 304.056 181.125 304.002Z" fill="#EB996E"/>
<path d="M170.181 310.304C170.89 309.344 171.903 308.656 173.053 308.354C174.134 307.843 175.359 307.732 176.513 308.041C176.513 308.238 175.002 308.343 173.284 308.97C171.565 309.596 170.343 310.49 170.181 310.304Z" fill="#EB996E"/>
<path d="M155.221 320.158L121.139 310.571L111.001 321.702C111.001 321.702 145.671 349.046 161.518 348.605" fill="#FFBE9D"/>
<path d="M161.519 348.605C160.093 348.704 158.661 348.602 157.263 348.304C153.465 347.497 149.778 346.23 146.283 344.532C137.333 340.481 125.776 333.215 113.827 324.232L110.852 321.911L110.575 321.702L110.817 321.435L120.978 310.316L121.105 310.177H121.289L145.764 317.141L152.776 319.207L154.645 319.775C154.861 319.839 155.073 319.916 155.279 320.007C155.051 319.994 154.827 319.951 154.61 319.88L152.73 319.404L145.66 317.5L121.116 310.722L121.428 310.629L111.29 321.772V321.296L114.254 323.617C126.226 332.577 137.713 339.866 146.548 344.021C150.007 345.74 153.648 347.06 157.401 347.956C157.987 348.097 158.58 348.205 159.177 348.281C159.616 348.354 160.059 348.4 160.504 348.42C160.846 348.46 161.185 348.523 161.519 348.605Z" fill="#EB996E"/>
<path d="M177.515 281.079C177.465 282.006 177.298 282.923 177.019 283.807C176.639 285.478 176.062 287.765 175.382 290.283C174.701 292.802 174.055 295.077 173.559 296.702C173.349 297.605 173.036 298.482 172.625 299.313C172.675 298.386 172.842 297.47 173.121 296.586C173.502 294.914 174.078 292.628 174.759 290.109C175.439 287.591 176.085 285.327 176.581 283.691C176.794 282.788 177.107 281.912 177.515 281.079Z" fill="#263238"/>
<path d="M175.936 326.96C175.821 326.96 175.498 325.265 174.644 322.619C174.163 321.077 173.418 319.631 172.442 318.348C171.285 316.783 169.591 315.708 167.69 315.33C165.744 315.237 163.796 315.465 161.923 316.003L157.125 316.955C156.52 317.037 155.927 317.193 155.36 317.419C155.157 317.502 154.973 317.626 154.82 317.784C154.668 317.941 154.549 318.13 154.472 318.336C154.39 318.518 154.347 318.716 154.347 318.916C154.347 319.116 154.39 319.314 154.472 319.497C154.472 319.497 153.965 319.183 154.184 318.336C154.256 318.087 154.379 317.856 154.543 317.656C154.708 317.457 154.911 317.293 155.141 317.175C155.724 316.899 156.341 316.7 156.975 316.583L161.761 315.492C163.715 314.902 165.756 314.655 167.793 314.761C169.857 315.166 171.692 316.344 172.926 318.057C173.92 319.41 174.656 320.937 175.094 322.561C175.402 323.632 175.645 324.721 175.821 325.822C175.911 326.194 175.95 326.577 175.936 326.96Z" fill="#263238"/>
<path d="M180.931 319.589C179.93 317.79 178.581 316.212 176.963 314.947C174.195 312.985 171.323 312.626 171.369 312.475C171.989 312.368 172.626 312.412 173.226 312.602C174.703 312.928 176.102 313.544 177.344 314.413C178.588 315.287 179.615 316.439 180.342 317.779C180.692 318.32 180.895 318.945 180.931 319.589Z" fill="#263238"/>
<path d="M205.105 296.249C205.07 296.496 205.005 296.738 204.909 296.969C204.736 297.503 204.506 298.129 204.24 299C203.606 300.834 202.753 303.341 201.703 306.416C200.653 309.492 199.339 313.287 197.528 317.291C195.717 321.296 193.56 325.59 190.977 329.966C188.55 334.091 185.459 337.782 181.831 340.887C178.879 343.436 175.562 345.521 171.992 347.073C169.586 348.113 167.054 348.827 164.461 349.197C163.758 349.301 163.049 349.367 162.339 349.395C162.094 349.425 161.846 349.425 161.601 349.395C161.601 349.325 162.616 349.279 164.415 348.954C166.962 348.48 169.444 347.7 171.808 346.632C179.596 343.004 186.093 337.062 190.423 329.606C192.972 325.3 195.037 320.936 196.986 317.024C198.935 313.113 200.123 309.353 201.265 306.254C202.407 303.155 203.329 300.625 203.998 298.895L204.794 296.911C204.876 296.68 204.98 296.459 205.105 296.249Z" fill="#263238"/>
<path d="M194.564 268.591C194.633 268.777 191.761 269.752 188.566 271.713C185.371 273.675 183.076 275.636 182.949 275.497C186.035 272.062 190.086 269.654 194.564 268.591Z" fill="#263238"/>
<path d="M119.042 296.911C119.159 294.758 119.495 292.622 120.045 290.539C120.38 288.408 120.925 286.316 121.671 284.294C121.562 286.447 121.229 288.583 120.679 290.666C120.344 292.798 119.795 294.89 119.042 296.911Z" fill="#263238"/>
<path d="M166.733 358.343C166.127 358.701 165.499 359.019 164.853 359.295C164.241 359.585 163.48 359.933 162.546 360.281C161.612 360.63 160.643 361.071 159.49 361.442C156.807 362.391 154.073 363.185 151.301 363.821C144.497 365.386 137.512 366.007 130.54 365.667C127.703 365.53 124.877 365.228 122.075 364.762C120.863 364.599 119.768 364.344 118.857 364.146C117.945 363.949 117.104 363.763 116.446 363.578C115.758 363.431 115.083 363.229 114.428 362.974C115.129 363.033 115.824 363.153 116.504 363.334C117.161 363.473 117.969 363.647 118.926 363.787C119.883 363.926 120.944 364.17 122.144 364.309C124.52 364.657 127.392 364.924 130.575 365.063C137.491 365.336 144.413 364.72 151.174 363.229C153.931 362.624 156.656 361.881 159.34 361.001C160.493 360.653 161.508 360.247 162.419 359.922C163.33 359.597 164.091 359.307 164.726 359.051C165.371 358.752 166.043 358.515 166.733 358.343Z" fill="#263238"/>
<path d="M136.894 377.529C134.353 377.203 131.86 376.575 129.466 375.66C127.003 374.949 124.634 373.943 122.408 372.666C122.477 372.491 125.672 373.71 129.662 374.987C132.114 375.711 134.527 376.56 136.894 377.529Z" fill="#263238"/>
<g opacity="0.3">
<path d="M151.024 346.609C148.625 345.588 146.307 344.207 143.735 343.812C140.598 343.336 137.968 344.276 134.831 344.764C125.489 346.238 118.511 345.123 109.699 344.764L109.215 347.445C113.09 350.486 117.98 351.461 122.894 351.368C127.357 351.286 131.74 349.824 136.204 349.952C139.714 350.239 143.178 350.94 146.526 352.041C152.212 353.561 158.175 354.617 163.976 353.608C169.778 352.598 175.429 349.186 177.817 343.8C173.925 346.451 169.444 348.094 164.77 348.583C160.097 349.073 155.375 348.395 151.024 346.609Z" fill="black"/>
</g>
<g opacity="0.3">
<path d="M123.435 373.919C125.33 377.083 127.933 379.758 131.037 381.73C134.14 383.703 137.659 384.919 141.312 385.282C142.895 385.477 144.501 385.343 146.029 384.887C146.791 384.656 147.498 384.273 148.108 383.76C148.718 383.248 149.22 382.616 149.582 381.904C147.891 380.792 146.01 380.004 144.034 379.583L123.654 373.942" fill="black"/>
</g>
<path d="M112.444 321.435L99.3069 321.911C97.9921 321.911 96.758 320.75 96.2044 318.858L86.2163 284.886C85.259 281.648 86.643 278.039 88.8921 277.923L107.796 276.762C109.226 276.681 110.552 278.073 111.048 280.244L117.818 308.97C119.26 314.947 116.55 321.284 112.444 321.435Z" fill="#455A64"/>
<path d="M103.193 307.205C101.717 308.738 93.4822 302.006 91.0486 302.505C88.615 303.004 87.1502 304.42 88.4997 305.465C89.8491 306.509 93.2515 309.921 93.7821 311.361C93.7821 311.361 94.0358 305.337 93.3899 306.312C92.744 307.287 91.6599 308.842 93.2284 309.527C94.797 310.212 92.375 315.516 93.5399 316.177C95.4769 317.111 97.5118 317.824 99.6065 318.301C101.755 318.966 103.868 319.741 105.938 320.622C109.113 321.921 112.65 322.004 115.88 320.855L117.53 320.274C118.783 319.833 119.867 319.008 120.63 317.915C121.393 316.823 121.798 315.517 121.786 314.181L121.728 308.691L123.689 304.257L120.229 296.806L114.462 294.88L116.676 301.785C114.37 302.946 110.587 303.654 108.603 302.575C106.619 301.495 99.0298 293.858 97.5881 294.589C96.1464 295.321 94.8662 297.073 96.181 298.744C97.4959 300.416 104.647 305.615 103.17 307.159" fill="#FFBE9D"/>
<path d="M73.8408 558.414C73.8961 558.292 73.9617 558.176 74.0369 558.066C74.1984 557.822 74.406 557.485 74.6828 557.079L77.1856 553.307L86.4817 539.484L117.288 494.022L124.093 484.029V484.168C125.627 465.598 126.988 449.244 127.957 437.475C128.464 431.672 128.879 426.937 129.11 423.664C129.26 422.074 129.375 420.832 129.456 419.95C129.456 419.544 129.537 419.23 129.56 418.987C129.542 418.879 129.542 418.769 129.56 418.661C129.575 418.769 129.575 418.879 129.56 418.987C129.56 419.23 129.56 419.555 129.56 419.95C129.491 420.844 129.41 422.085 129.306 423.675C129.064 426.96 128.718 431.661 128.279 437.499C127.357 449.279 126.065 465.644 124.612 484.226V484.296V484.365L117.807 494.358C105.708 512.058 94.7397 528.087 86.8046 539.728L77.347 553.435L74.752 557.149L74.0715 558.101C73.9331 558.321 73.8524 558.426 73.8408 558.414Z" fill="#455A64"/>
<path d="M141.439 409.353C141.531 409.504 138.601 411.35 135.36 414.1C132.119 416.851 129.813 419.416 129.674 419.3C130.034 418.62 130.497 418.001 131.047 417.466C133.49 414.726 136.305 412.347 139.409 410.398C140.025 409.942 140.711 409.589 141.439 409.353Z" fill="#455A64"/>
<path d="M129.974 418.917C128.655 418.857 127.381 418.413 126.307 417.64C125.13 417.044 124.155 416.111 123.504 414.959C123.631 414.831 124.842 416.05 126.618 417.13C128.394 418.209 129.974 418.743 129.974 418.917Z" fill="#455A64"/>
<path d="M173.595 404.2C173.595 404.374 170.435 403.991 166.548 403.771C162.661 403.55 159.513 403.573 159.501 403.399C161.842 403.021 164.222 402.943 166.583 403.167C168.954 403.207 171.311 403.554 173.595 404.2Z" fill="#455A64"/>
<path d="M106.135 390.388C106.135 390.388 105.696 390.725 104.843 390.934C103.726 391.189 102.569 391.217 101.44 391.015C100.316 390.814 99.2445 390.384 98.2918 389.75C97.5652 389.263 97.2076 388.845 97.2653 388.787C98.6235 389.507 100.064 390.057 101.556 390.423C103.078 390.596 104.615 390.584 106.135 390.388Z" fill="#455A64"/>
<path d="M202.244 293.127C201.963 293.351 201.653 293.534 201.321 293.672C200.449 294.11 199.543 294.475 198.611 294.763C197.234 295.209 195.822 295.536 194.39 295.738C192.626 295.957 190.847 296.016 189.073 295.912C187.302 295.77 185.549 295.459 183.837 294.984C182.445 294.585 181.09 294.065 179.788 293.429C178.909 293.009 178.065 292.52 177.262 291.966C176.951 291.788 176.668 291.565 176.42 291.305C176.49 291.212 177.747 292.059 179.973 293.046C181.274 293.613 182.616 294.082 183.986 294.45C185.671 294.878 187.388 295.165 189.119 295.309C190.853 295.415 192.593 295.372 194.321 295.181C195.727 295.014 197.119 294.739 198.484 294.357C200.826 293.696 202.198 293.022 202.244 293.127Z" fill="white"/>
<path d="M112.674 287.834C113.783 287.873 114.889 287.981 115.984 288.159C117.097 288.141 118.21 288.187 119.318 288.299C118.238 288.685 117.091 288.843 115.948 288.763C114.805 288.683 113.691 288.367 112.674 287.834Z" fill="white"/>
<path d="M175.187 287.509C175.187 287.684 162.926 288.891 147.771 290.225C132.616 291.56 120.298 292.547 120.287 292.326C120.275 292.106 132.547 290.945 147.714 289.622C162.88 288.299 175.175 287.347 175.187 287.509Z" fill="white"/>
<path d="M166.732 260.292C167.282 259.218 167.548 258.019 167.504 256.811L166.12 211.685C166.651 199.127 159.835 188.345 147.332 188.159H146.179C140.57 188.406 135.259 190.769 131.303 194.778C127.347 198.787 125.036 204.147 124.83 209.793C124.426 220.68 124.115 232.716 124.438 238.531C125.107 250.578 137.125 251.924 137.125 251.924L137.517 256.625C137.517 256.625 136.583 264.749 145.971 267.535C153.18 269.67 161.092 265.098 164.425 262.892C165.4 262.236 166.194 261.342 166.732 260.292Z" fill="#FFBE9D"/>
<path d="M137.067 252.006C142.632 251.765 148.012 249.924 152.569 246.701C152.569 246.701 149.247 255.534 137.252 254.977L137.067 252.006Z" fill="#EB996E"/>
<path d="M131.509 219.624C131.521 220.072 131.708 220.498 132.03 220.808C132.352 221.119 132.782 221.29 133.228 221.283C133.446 221.293 133.664 221.258 133.869 221.18C134.073 221.103 134.26 220.985 134.419 220.833C134.577 220.682 134.703 220.5 134.79 220.298C134.876 220.096 134.922 219.878 134.923 219.658C134.911 219.209 134.724 218.782 134.403 218.47C134.082 218.157 133.652 217.984 133.205 217.987C132.986 217.981 132.769 218.019 132.565 218.098C132.361 218.177 132.175 218.296 132.017 218.448C131.859 218.601 131.733 218.783 131.646 218.985C131.559 219.187 131.512 219.404 131.509 219.624Z" fill="#263238"/>
<path d="M127.667 215.666C127.886 215.886 129.143 214.865 130.977 214.784C132.811 214.703 134.218 215.573 134.437 215.341C134.656 215.109 134.299 214.842 133.687 214.436C132.87 213.912 131.91 213.66 130.942 213.716C129.985 213.748 129.063 214.09 128.313 214.691C127.725 215.132 127.54 215.573 127.667 215.666Z" fill="#263238"/>
<path d="M149.328 219.624C149.34 220.072 149.527 220.498 149.849 220.808C150.171 221.119 150.601 221.29 151.047 221.283C151.265 221.293 151.483 221.258 151.688 221.18C151.892 221.103 152.079 220.985 152.237 220.833C152.396 220.682 152.522 220.5 152.609 220.298C152.695 220.096 152.741 219.878 152.742 219.659C152.73 219.21 152.543 218.784 152.221 218.474C151.9 218.163 151.469 217.993 151.024 217.999C150.805 217.989 150.587 218.024 150.383 218.102C150.178 218.179 149.991 218.297 149.833 218.449C149.675 218.6 149.548 218.783 149.462 218.985C149.375 219.186 149.329 219.404 149.328 219.624Z" fill="#263238"/>
<path d="M145.763 215.225C145.982 215.434 147.24 214.412 149.085 214.343C150.93 214.273 152.314 215.132 152.545 214.9C152.776 214.668 152.407 214.389 151.795 213.995C150.979 213.466 150.019 213.211 149.05 213.263C148.092 213.303 147.171 213.649 146.421 214.25C145.832 214.714 145.659 215.132 145.763 215.225Z" fill="#263238"/>
<path d="M139.674 229.245C138.692 228.981 137.68 228.845 136.663 228.839C136.191 228.839 135.741 228.735 135.648 228.41C135.584 227.926 135.673 227.435 135.902 227.005L137.136 223.338C138.843 218.126 140.066 213.844 139.847 213.774C139.628 213.704 138.082 217.883 136.387 223.059C135.983 224.347 135.591 225.566 135.233 226.738C134.968 227.324 134.911 227.984 135.072 228.607C135.145 228.773 135.257 228.92 135.397 229.035C135.537 229.15 135.702 229.23 135.879 229.268C136.14 229.329 136.408 229.353 136.675 229.338C137.674 229.435 138.682 229.404 139.674 229.245Z" fill="#263238"/>
<path d="M144.968 207.982C145.164 208.482 146.998 208.157 149.166 208.331C151.335 208.505 153.111 209.015 153.376 208.551C153.491 208.319 153.169 207.866 152.442 207.391C151.484 206.823 150.404 206.497 149.293 206.439C148.183 206.351 147.068 206.53 146.041 206.961C145.268 207.333 144.887 207.75 144.968 207.982Z" fill="#263238"/>
<path d="M128.105 210.281C128.439 210.687 129.685 210.188 131.219 210.106C132.753 210.025 134.045 210.257 134.322 209.805C134.437 209.584 134.218 209.178 133.641 208.807C132.868 208.35 131.973 208.147 131.081 208.226C130.184 208.282 129.326 208.614 128.624 209.178C128.105 209.631 127.943 210.072 128.105 210.281Z" fill="#263238"/>
<path d="M164.703 223.558C164.698 223.115 164.782 222.675 164.952 222.265C165.121 221.855 165.371 221.484 165.687 221.175C166.003 220.865 166.379 220.624 166.79 220.465C167.202 220.306 167.642 220.233 168.082 220.25C170.32 220.367 172.857 221.527 172.915 226.181C173.007 234.433 164.761 232.832 164.737 232.588C164.714 232.344 164.714 227.005 164.703 223.558Z" fill="#FFBE9D"/>
<path d="M166.491 229.466C166.491 229.466 166.629 229.57 166.871 229.675C167.216 229.811 167.599 229.811 167.944 229.675C168.469 229.329 168.895 228.85 169.176 228.285C169.458 227.72 169.586 227.09 169.547 226.46C169.555 225.752 169.41 225.051 169.12 224.406C169.043 224.148 168.903 223.914 168.714 223.723C168.525 223.533 168.292 223.393 168.036 223.315C167.871 223.272 167.696 223.289 167.542 223.364C167.388 223.438 167.265 223.564 167.194 223.721C167.09 223.953 167.136 224.115 167.102 224.127C167.067 224.139 166.917 223.999 166.986 223.651C167.027 223.446 167.137 223.261 167.298 223.129C167.524 222.962 167.803 222.883 168.082 222.908C168.42 222.973 168.736 223.123 169 223.345C169.264 223.566 169.468 223.851 169.593 224.173C169.953 224.892 170.131 225.69 170.112 226.495C170.112 228.154 169.259 229.721 168.071 230.081C167.852 230.15 167.621 230.168 167.394 230.131C167.168 230.095 166.954 230.006 166.767 229.872C166.502 229.663 166.456 229.477 166.491 229.466Z" fill="#EB996E"/>
<path d="M124.843 209.538C124.728 211.209 122.606 205.568 123.459 204.129C122.864 204.298 122.239 204.336 121.628 204.241C121.016 204.145 120.432 203.919 119.915 203.578C119.398 203.236 118.96 202.787 118.63 202.26C118.3 201.734 118.086 201.142 118.003 200.525C117.919 199.908 117.969 199.281 118.147 198.685C118.325 198.088 118.629 197.538 119.036 197.07C119.444 196.602 119.947 196.227 120.511 195.971C121.075 195.715 121.687 195.584 122.306 195.587C121.887 194.831 121.731 193.957 121.86 193.102C121.99 192.247 122.398 191.459 123.021 190.863C123.745 190.362 124.573 190.036 125.443 189.911C125.418 188.889 125.656 187.877 126.135 186.975C126.64 185.985 127.364 185.124 128.251 184.458C129.138 183.793 130.165 183.34 131.252 183.135C132.34 182.931 133.459 182.979 134.525 183.276C135.591 183.573 136.576 184.112 137.403 184.851C138.097 183.903 139.01 183.139 140.063 182.625C141.115 182.111 142.277 181.862 143.446 181.901C144.616 181.94 145.758 182.265 146.775 182.848C147.792 183.43 148.653 184.253 149.283 185.246C150.145 184.714 151.113 184.382 152.118 184.272C153.123 184.162 154.14 184.278 155.095 184.611C156.05 184.944 156.92 185.486 157.642 186.198C158.364 186.909 158.92 187.773 159.271 188.727C160.295 188.174 161.47 187.971 162.618 188.149C163.767 188.327 164.827 188.876 165.638 189.714C166.194 190.505 166.803 191.257 167.46 191.966C168.403 192.555 169.399 193.052 170.436 193.451C171.16 193.891 171.78 194.486 172.251 195.193C172.722 195.901 173.032 196.704 173.16 197.546C173.287 198.388 173.229 199.248 172.99 200.065C172.75 200.881 172.335 201.635 171.773 202.272C172.957 203.14 173.99 204.199 174.83 205.406C175.247 206.012 175.515 206.709 175.611 207.439C175.707 208.17 175.629 208.913 175.383 209.607C174.691 211.232 172.858 212.126 172.177 213.762C171.866 214.505 171.831 215.353 171.531 216.084C171.261 216.693 170.865 217.238 170.37 217.682C169.875 218.126 169.292 218.459 168.659 218.66C167.887 221.98 165.58 222.885 165.511 223.86C164.842 234.12 160.643 228.166 158.533 206.532C158.037 201.448 159.882 198.86 155.903 195.738C155.38 196.385 154.891 197.059 154.438 197.757C153.827 198.486 153.071 199.078 152.218 199.495C151.366 199.912 150.436 200.145 149.489 200.179C148.542 200.213 147.598 200.047 146.718 199.692C145.839 199.337 145.042 198.8 144.381 198.117C143.924 198.915 143.285 199.591 142.516 200.091C141.747 200.591 140.872 200.9 139.961 200.992C139.051 201.083 138.131 200.956 137.279 200.62C136.428 200.283 135.667 199.748 135.062 199.057C133.586 200.38 130.16 202.62 127.565 200.218C125.981 203.082 125.051 206.266 124.843 209.538Z" fill="#263238"/>
<path d="M139.201 233.4C139.463 234.168 139.832 234.895 140.297 235.559C140.534 235.886 140.838 236.158 141.188 236.358C141.538 236.558 141.926 236.682 142.327 236.72C142.756 236.728 143.181 236.626 143.56 236.423C143.94 236.219 144.261 235.922 144.495 235.559C144.955 234.818 145.17 233.948 145.106 233.075C145.106 232.298 144.714 231.358 143.953 231.265C143.629 231.259 143.309 231.331 143.019 231.474L138.947 233.133" fill="#EB996E"/>
<path d="M140.793 236.766C141.526 236.803 142.261 236.709 142.961 236.488C143.671 236.207 144.254 235.675 144.599 234.991C144.785 234.571 144.882 234.116 144.882 233.656C144.882 233.196 144.785 232.741 144.599 232.321C144.505 232.102 144.385 231.896 144.242 231.706C144.092 231.543 144.115 231.543 143.942 231.578C143.717 231.648 143.497 231.733 143.284 231.834L142.627 232.101C141.75 232.46 140.966 232.762 140.32 233.017C139.625 233.355 138.882 233.582 138.117 233.691C138.72 233.198 139.398 232.806 140.124 232.53C140.758 232.217 141.531 231.857 142.431 231.474L143.088 231.184C143.327 231.063 143.574 230.958 143.826 230.87C144.02 230.801 144.232 230.801 144.426 230.87C144.605 230.942 144.761 231.063 144.876 231.218C145.063 231.456 145.218 231.718 145.337 231.996C145.556 232.518 145.657 233.081 145.635 233.647C145.613 234.212 145.468 234.766 145.21 235.269C144.992 235.67 144.698 236.025 144.343 236.311C143.989 236.598 143.582 236.812 143.146 236.94C142.579 237.128 141.972 237.153 141.393 237.01C140.966 236.94 140.77 236.801 140.793 236.766Z" fill="#263238"/>
</g>
<defs>
<clipPath id="clip0_1874_2631">
<rect width="751" height="680" fill="white"/>
</clipPath>
</defs>
</svg>
