<svg width="627" height="627" viewBox="0 0 627 627" fill="none" xmlns="http://www.w3.org/2000/svg">
<path d="M627 479.53H0V479.843H627V479.53Z" fill="#EBEBEB"/>
<path d="M112.233 488.069H65.7847V488.383H112.233V488.069Z" fill="#EBEBEB"/>
<path d="M300.96 494.853H211.926V495.167H300.96V494.853Z" fill="#EBEBEB"/>
<path d="M182.67 488.22H119.03V488.533H182.67V488.22Z" fill="#EBEBEB"/>
<path d="M571.134 497.6H510.102V497.913H571.134V497.6Z" fill="#EBEBEB"/>
<path d="M504.522 497.6H464.432V497.913H504.522V497.6Z" fill="#EBEBEB"/>
<path d="M425.382 492.308H347.621V492.621H425.382V492.308Z" fill="#EBEBEB"/>
<path d="M297.198 423.601H55.0633C53.1665 423.598 51.3484 422.842 50.0083 421.5C48.6682 420.157 47.9155 418.338 47.9155 416.441V76.0676C47.932 74.1816 48.692 72.3783 50.0303 71.0494C51.3687 69.7204 53.1773 68.9732 55.0633 68.97H297.198C299.097 68.97 300.919 69.7244 302.261 71.0672C303.604 72.41 304.359 74.2313 304.359 76.1303V416.441C304.359 418.34 303.604 420.161 302.261 421.504C300.919 422.847 299.097 423.601 297.198 423.601ZM55.0633 69.2208C53.2496 69.2241 51.5113 69.9469 50.23 71.2306C48.9487 72.5143 48.229 74.2539 48.229 76.0676V416.441C48.229 418.255 48.9487 419.994 50.23 421.278C51.5113 422.562 53.2496 423.284 55.0633 423.288H297.198C299.013 423.284 300.753 422.562 302.036 421.279C303.319 419.995 304.042 418.256 304.045 416.441V76.0676C304.042 74.2527 303.319 72.5131 302.036 71.2298C300.753 69.9465 299.013 69.2241 297.198 69.2208H55.0633Z" fill="#EBEBEB"/>
<path d="M568.451 423.601H326.303C324.405 423.598 322.586 422.842 321.244 421.5C319.902 420.158 319.146 418.339 319.143 416.441V76.0676C319.163 74.1805 319.926 72.3772 321.266 71.0486C322.606 69.72 324.416 68.9732 326.303 68.97H568.451C570.335 68.9765 572.14 69.7252 573.476 71.0538C574.811 72.3824 575.57 74.1838 575.586 76.0676V416.441C575.586 418.336 574.835 420.153 573.498 421.495C572.16 422.837 570.345 423.595 568.451 423.601ZM326.303 69.2208C324.489 69.2241 322.749 69.9465 321.466 71.2298C320.182 72.5131 319.46 74.2527 319.457 76.0676V416.441C319.46 418.256 320.182 419.995 321.466 421.279C322.749 422.562 324.489 423.284 326.303 423.288H568.451C570.266 423.284 572.005 422.562 573.289 421.279C574.572 419.995 575.294 418.256 575.298 416.441V76.0676C575.294 74.2527 574.572 72.5131 573.289 71.2298C572.005 69.9465 570.266 69.2241 568.451 69.2208H326.303Z" fill="#EBEBEB"/>
<path d="M546.268 475.667H448.456C443.893 475.667 439.516 473.855 436.29 470.628C433.063 467.402 431.251 463.025 431.251 458.462V370.582C431.251 366.019 433.063 361.643 436.29 358.416C439.516 355.19 443.893 353.377 448.456 353.377H546.268V475.667Z" fill="#F0F0F0"/>
<path d="M545.465 475.667H547.083C556.585 475.667 564.288 467.964 564.288 458.462V370.582C564.288 361.08 556.585 353.377 547.083 353.377H545.465C535.963 353.377 528.26 361.08 528.26 370.582V458.462C528.26 467.964 535.963 475.667 545.465 475.667Z" fill="#F5F5F5"/>
<path d="M533.163 398.484H318.83V475.667H533.163V398.484Z" fill="#F0F0F0"/>
<path d="M543.659 479.53H226.874C226.41 479.531 225.95 479.441 225.521 479.265C225.092 479.089 224.702 478.829 224.374 478.502C224.045 478.175 223.785 477.786 223.607 477.357C223.429 476.929 223.337 476.47 223.337 476.006V475.667H448.38L547.183 476.006C547.183 476.94 546.812 477.837 546.151 478.497C545.49 479.158 544.594 479.53 543.659 479.53Z" fill="#E0E0E0"/>
<path d="M247.339 302.64H452.794C459.157 302.64 465.258 305.168 469.757 309.667C474.256 314.165 476.783 320.267 476.783 326.629V415.927H223.337V326.629C223.337 320.267 225.865 314.165 230.364 309.667C234.862 305.168 240.964 302.64 247.326 302.64H247.339Z" fill="#E0E0E0"/>
<path d="M263.791 302.64H471.504C477.56 302.64 483.369 305.046 487.651 309.329C491.933 313.611 494.339 319.419 494.339 325.476V415.939H240.956V325.476C240.956 319.419 243.362 313.611 247.644 309.329C251.927 305.046 257.735 302.64 263.791 302.64Z" fill="#F5F5F5"/>
<path d="M522.918 391.436H335.144C332.271 391.436 329.515 392.578 327.483 394.609C325.451 396.641 324.31 399.397 324.31 402.271V412.039C324.31 414.913 325.451 417.669 327.483 419.7C329.515 421.732 332.271 422.874 335.144 422.874H522.918C524.983 422.874 527.027 422.467 528.934 421.677C530.841 420.886 532.574 419.728 534.033 418.267C535.492 416.807 536.649 415.073 537.438 413.165C538.227 411.258 538.632 409.213 538.631 407.149C538.631 402.981 536.975 398.985 534.029 396.038C531.082 393.091 527.085 391.436 522.918 391.436Z" fill="#E0E0E0"/>
<path d="M318.278 475.667H220.466C215.903 475.667 211.527 473.855 208.3 470.628C205.074 467.402 203.261 463.025 203.261 458.462V370.582C203.261 366.019 205.074 361.643 208.3 358.416C211.527 355.19 215.903 353.377 220.466 353.377H318.278V475.667Z" fill="#F0F0F0"/>
<path d="M317.463 475.667H319.08C328.582 475.667 336.285 467.964 336.285 458.462V370.582C336.285 361.08 328.582 353.377 319.08 353.377H317.463C307.961 353.377 300.258 361.08 300.258 370.582V458.462C300.258 467.964 307.961 475.667 317.463 475.667Z" fill="#F5F5F5"/>
<path d="M502.929 116.02H414.359V246.26H502.929V116.02Z" fill="#E0E0E0"/>
<path d="M508.259 116.02H416.779V246.26H508.259V116.02Z" fill="#F5F5F5"/>
<path d="M424.441 126.278V235.99H500.597V126.278H424.441Z" fill="white"/>
<path d="M453.045 186.432V194.784C455.533 194.784 457.997 194.294 460.296 193.341C462.595 192.389 464.684 190.994 466.443 189.234C468.203 187.475 469.598 185.386 470.551 183.087C471.503 180.788 471.993 178.324 471.993 175.836V167.484C469.504 167.483 467.039 167.972 464.74 168.923C462.44 169.875 460.351 171.27 458.591 173.03C456.831 174.79 455.436 176.88 454.484 179.179C453.532 181.479 453.043 183.943 453.045 186.432Z" fill="#F5F5F5"/>
<path d="M453.045 158.267V166.619C458.069 166.616 462.887 164.618 466.439 161.066C469.992 157.513 471.99 152.695 471.993 147.671V139.307C469.504 139.307 467.039 139.797 464.739 140.75C462.439 141.703 460.35 143.1 458.59 144.861C456.831 146.622 455.435 148.712 454.484 151.012C453.532 153.313 453.043 155.778 453.045 158.267Z" fill="#F5F5F5"/>
<path d="M453.045 214.61V222.961C458.071 222.958 462.891 220.959 466.444 217.403C469.997 213.848 471.993 209.027 471.993 204.001V195.624C469.501 195.624 467.034 196.115 464.733 197.07C462.432 198.024 460.341 199.424 458.581 201.187C456.821 202.95 455.426 205.044 454.476 207.347C453.526 209.65 453.04 212.118 453.045 214.61Z" fill="#F5F5F5"/>
<path d="M371.385 218.171V126.278L82.1371 126.278V218.171H371.385Z" fill="#EBEBEB"/>
<path d="M82.1372 218.171V126.278H80.3941V218.171H82.1372Z" fill="#E0E0E0"/>
<path d="M357.127 140.536H96.395V203.913H357.127V140.536Z" fill="#F5F5F5"/>
<path d="M158.882 203.913H137.225L154.179 140.536H175.836L158.882 203.913Z" fill="white"/>
<path d="M179.021 203.913H166.494L183.448 140.536H195.975L179.021 203.913Z" fill="white"/>
<path d="M288.031 203.913H275.504L292.458 140.536H304.985L288.031 203.913Z" fill="white"/>
<path d="M194.771 374.432H124.66L115.982 279.178H186.106L194.771 374.432Z" fill="#E6E6E6"/>
<path d="M198.408 374.432H128.284L119.619 279.178H189.743L198.408 374.432Z" fill="#F0F0F0"/>
<path d="M137.865 363.886L131.118 289.724H180.15L186.896 363.886H137.865Z" fill="white"/>
<path d="M247.326 374.432H237.884V479.517H247.326V374.432Z" fill="#E6E6E6"/>
<path d="M250.298 374.432H243.74V479.517H250.298V374.432Z" fill="#F5F5F5"/>
<path d="M152.687 386.031H252.33V374.432H152.687V386.031Z" fill="#F5F5F5"/>
<path d="M148.461 386.031H139.019V479.53H148.461V386.031Z" fill="#E6E6E6"/>
<path d="M151.446 386.031H144.887V479.53H151.446V386.031Z" fill="#F5F5F5"/>
<path d="M88.7205 386.031H79.2778V479.53H88.7205V386.031Z" fill="#E6E6E6"/>
<path d="M91.7049 386.031H85.1465V479.53H91.7049V386.031Z" fill="#F5F5F5"/>
<path d="M187.586 386.031H178.143V479.53H187.586V386.031Z" fill="#E6E6E6"/>
<path d="M190.558 386.031H184V479.53H190.558V386.031Z" fill="#F5F5F5"/>
<path d="M152.687 374.432H79.2778V386.031H152.687V374.432Z" fill="#E6E6E6"/>
<path d="M313.5 536.16C447.781 536.16 556.638 529.805 556.638 521.965C556.638 514.125 447.781 507.77 313.5 507.77C179.218 507.77 70.3618 514.125 70.3618 521.965C70.3618 529.805 179.218 536.16 313.5 536.16Z" fill="#F5F5F5"/>
<path d="M411.763 170.544C406.973 167.547 393.217 170.544 395.461 185.592C397.706 200.64 380.025 196.79 383.887 214.296C387.749 231.802 419.087 257.81 438.386 240.154C457.685 222.497 441.42 214.71 441.784 193.756C442.035 181.303 436.392 159.007 411.763 170.544Z" fill="#263238"/>
<path d="M440.154 239.401C440.064 239.401 439.979 239.364 439.916 239.301C439.885 239.272 439.861 239.237 439.845 239.198C439.828 239.159 439.82 239.117 439.82 239.075C439.82 239.033 439.828 238.991 439.845 238.952C439.861 238.914 439.885 238.879 439.916 238.849C451.804 227.037 449.057 219.839 445.584 210.735C443.653 205.719 441.483 200 441.295 192.589C441.107 184.589 438.185 173.666 430.573 169.165C425.181 165.979 418.259 166.531 410.008 170.807C409.932 170.843 409.846 170.849 409.767 170.823C409.688 170.798 409.621 170.743 409.581 170.669C409.56 170.632 409.546 170.59 409.542 170.547C409.537 170.505 409.542 170.461 409.554 170.42C409.567 170.379 409.589 170.341 409.617 170.308C409.645 170.275 409.68 170.249 409.719 170.231C418.184 165.842 425.307 165.302 430.912 168.613C438.737 173.253 441.746 184.413 441.947 192.564C442.123 199.875 444.28 205.518 446.186 210.496C449.734 219.826 452.556 227.2 440.367 239.338C440.305 239.383 440.23 239.405 440.154 239.401Z" fill="#263238"/>
<path d="M442.938 237.683C442.938 237.683 443.138 237.972 443.276 238.16L443.778 238.837C444.146 239.305 444.535 239.769 444.944 240.229C445.785 241.176 446.681 242.072 447.628 242.912C449.57 244.691 451.668 246.29 453.898 247.69C456.162 249.131 458.516 250.425 460.945 251.565C462.199 252.179 463.453 252.668 464.707 253.22C464.945 253.333 464.707 253.22 464.544 253.321C464.381 253.421 464.243 253.509 464.381 253.433C464.996 252.91 465.485 252.254 465.811 251.515C466.365 250.409 466.839 249.265 467.228 248.091C468.07 245.472 468.752 242.805 469.272 240.103C469.836 237.345 470.275 234.523 470.664 231.676C471.052 228.83 471.404 225.946 471.717 223.124H476.821C477.239 229.121 477.193 235.142 476.683 241.132C476.449 244.236 475.975 247.317 475.266 250.349C474.885 251.995 474.365 253.606 473.711 255.164C472.919 257.148 471.694 258.93 470.124 260.381C468.968 261.392 467.56 262.073 466.049 262.349C464.552 262.6 463.016 262.466 461.585 261.961C460.118 261.434 458.625 260.995 457.171 260.393C454.218 259.24 451.359 257.861 448.618 256.267C445.836 254.613 443.205 252.717 440.756 250.599C439.514 249.498 438.342 248.321 437.245 247.076C436.68 246.449 436.129 245.822 435.602 245.094L434.824 243.991C434.549 243.577 434.36 243.289 433.972 242.611L442.938 237.683Z" fill="#FFC3BD"/>
<path d="M441.22 233.043C452.945 240.567 451.992 245.132 451.992 245.132L444.618 255.816C444.618 255.816 425.808 248.292 424.642 242.386C423.413 236.229 435.527 229.407 441.22 233.043Z" fill="#263238"/>
<path opacity="0.1" d="M441.22 233.043C452.945 240.567 451.992 245.132 451.992 245.132L444.618 255.816C444.618 255.816 425.808 248.292 424.642 242.386C423.413 236.229 435.527 229.407 441.22 233.043Z" fill="white"/>
<path d="M452.694 244.079C452.912 244.233 453.06 244.467 453.107 244.729C453.154 244.992 453.096 245.263 452.945 245.483L445.421 256.28C445.347 256.391 445.251 256.485 445.139 256.558C445.028 256.631 444.903 256.681 444.772 256.704C444.641 256.727 444.506 256.724 444.376 256.694C444.246 256.665 444.124 256.609 444.016 256.531C443.908 256.455 443.816 256.358 443.745 256.246C443.674 256.134 443.627 256.009 443.604 255.878C443.582 255.748 443.586 255.614 443.616 255.485C443.646 255.356 443.701 255.234 443.778 255.126L451.302 244.329C451.456 244.115 451.687 243.969 451.947 243.922C452.207 243.875 452.475 243.931 452.694 244.079Z" fill="#973939"/>
<path d="M472.545 225.582L466.726 217.807L477.887 214.936C477.887 214.936 480.156 221.858 476.445 226.936L472.545 225.582Z" fill="#FFC3BD"/>
<path d="M467.04 208.252L476.332 206.684L477.887 214.936L466.726 217.807L467.04 208.252Z" fill="#FFC3BD"/>
<path d="M372.488 511.13L383.122 512.159L390.721 487.154L380.088 486.126L372.488 511.13Z" fill="#FFC3BD"/>
<path d="M304.835 474.175L312.723 481.574L329.752 462.864L321.864 455.465L304.835 474.175Z" fill="#FFC3BD"/>
<path d="M316.372 478.025L310.44 467.353C310.343 467.167 310.181 467.023 309.984 466.949C309.787 466.875 309.57 466.876 309.374 466.952L300.245 470.426C300.012 470.52 299.803 470.664 299.631 470.847C299.459 471.03 299.329 471.248 299.249 471.487C299.169 471.725 299.142 471.977 299.169 472.227C299.196 472.477 299.276 472.718 299.405 472.934C301.537 476.62 302.753 478.301 305.349 482.966C306.954 485.85 310.077 492.483 312.296 496.471C314.516 500.459 318.566 498.49 318.014 496.622C315.506 488.283 315.958 483.643 316.673 479.969C316.802 479.305 316.696 478.618 316.372 478.025Z" fill="#263238"/>
<path d="M384.389 508.911H371.485C371.255 508.915 371.032 508.993 370.849 509.133C370.667 509.273 370.533 509.467 370.469 509.688L367.66 519.896C367.594 520.137 367.585 520.391 367.634 520.637C367.683 520.882 367.788 521.114 367.941 521.312C368.094 521.51 368.291 521.67 368.517 521.779C368.742 521.888 368.99 521.943 369.24 521.94C373.78 521.94 375.937 521.94 381.605 521.94H398.948C403.663 521.94 404.641 517.175 402.71 516.748C393.932 514.817 388.916 512.146 386.219 509.601C385.723 509.139 385.066 508.892 384.389 508.911Z" fill="#263238"/>
<path opacity="0.2" d="M390.721 487.166L386.809 500.045H375.849L380.087 486.138L390.721 487.166Z" fill="black"/>
<path opacity="0.2" d="M321.864 455.465L329.752 462.876L320.974 472.52L313.086 465.109L321.864 455.465Z" fill="black"/>
<path d="M441.22 233.043C441.22 233.043 445.484 235.94 418.46 294.652L375.912 282.877C381.417 265.748 384.401 255.076 385.944 217.243C392.244 217.661 398.505 218.537 404.678 219.864C411.235 221.188 417.688 222.977 423.99 225.218C429.865 227.527 435.616 230.139 441.22 233.043Z" fill="#263238"/>
<path opacity="0.1" d="M441.22 233.043C441.22 233.043 445.484 235.94 418.46 294.652L375.912 282.877C381.417 265.748 384.401 255.076 385.944 217.243C392.244 217.661 398.505 218.537 404.678 219.864C411.235 221.188 417.688 222.977 423.99 225.218C429.865 227.527 435.616 230.139 441.22 233.043Z" fill="white"/>
<path d="M412.629 198.634C412.127 205.192 410.184 216.917 404.691 219.864C404.691 219.864 401.493 230.736 415.363 234.736C427.113 238.11 424.003 225.218 424.003 225.218C417.532 221.645 421.495 215.312 422.749 208.214L412.629 198.634Z" fill="#FFC3BD"/>
<path opacity="0.2" d="M412.566 198.646C412.165 203.9 410.848 212.528 407.475 217.218C411.387 217.607 417.507 216.415 419.312 213.456C420.205 211.381 420.931 209.238 421.482 207.048L412.566 198.646Z" fill="black"/>
<path d="M429.834 189.141C429.834 199.925 430.022 204.502 424.918 210.333C417.231 219.111 403.989 216.716 400.791 206.133C397.919 196.615 398.446 180.576 408.729 175.673C410.988 174.582 413.489 174.087 415.994 174.235C418.498 174.383 420.924 175.169 423.039 176.519C425.154 177.868 426.888 179.737 428.078 181.946C429.267 184.155 429.871 186.632 429.834 189.141Z" fill="#FFC3BD"/>
<path d="M407.55 183.159C413.607 191.624 433.984 203.386 435.351 192.05C436.718 180.714 426.31 169.478 416.002 170.594C405.694 171.71 402.371 175.961 407.55 183.159Z" fill="#263238"/>
<path d="M434.298 199.21C433.842 200.138 433.207 200.967 432.43 201.649C431.653 202.331 430.75 202.853 429.771 203.186C427.15 204.051 425.708 201.744 426.322 199.198C426.887 196.903 428.918 193.693 431.614 193.931C432.2 193.991 432.762 194.198 433.248 194.531C433.733 194.865 434.128 195.314 434.395 195.84C434.661 196.365 434.793 196.948 434.776 197.537C434.759 198.126 434.594 198.701 434.298 199.21Z" fill="#FFC3BD"/>
<path d="M418.46 294.69C418.46 294.69 433.608 356.048 423.676 402.459C417.018 433.545 393.016 496.346 393.016 496.346L374.206 495.869C374.206 495.869 392.377 429.972 396.126 404.051C402.559 359.71 387.248 286.062 387.248 286.062L418.46 294.69Z" fill="#973939"/>
<path opacity="0.2" d="M401.568 303.468L392.188 318.265C394.997 335.811 396.776 353.506 397.518 371.259C410.748 347.646 404.503 316.008 401.568 303.468Z" fill="black"/>
<path d="M396.377 497.286L372.488 496.697L374.093 488.195L398.12 490.001L396.377 497.286Z" fill="#263238"/>
<path d="M409.13 292.182C409.13 292.182 400.352 359.271 381.454 397.393C366.168 428.178 325.375 472.006 325.375 472.006L314.942 461.259C314.942 461.259 342.53 413.607 353.816 393.179C381.68 343.019 356.989 298.063 375.874 282.827L409.13 292.182Z" fill="#973939"/>
<path d="M326.429 473.473L312.973 460.343L317.437 454.274L332.109 469.435L326.429 473.473Z" fill="#263238"/>
<path d="M375.961 280.194L372.99 283.479C372.764 283.73 372.989 284.131 373.516 284.269L418.146 296.621C418.522 296.722 418.898 296.621 418.986 296.395L420.428 292.633C420.529 292.383 420.253 292.069 419.839 291.944L376.752 280.018C376.616 279.976 376.472 279.97 376.333 280.001C376.195 280.032 376.066 280.098 375.961 280.194Z" fill="#973939"/>
<path opacity="0.5" d="M375.961 280.194L372.99 283.479C372.764 283.73 372.989 284.131 373.516 284.269L418.146 296.621C418.522 296.722 418.898 296.621 418.986 296.395L420.428 292.633C420.529 292.383 420.253 292.069 419.839 291.944L376.752 280.018C376.616 279.976 376.472 279.97 376.333 280.001C376.195 280.032 376.066 280.098 375.961 280.194Z" fill="white"/>
<path d="M380.413 286.614L379.26 286.301C379.034 286.238 378.896 286.062 378.946 285.925L380.852 281.134C380.915 280.984 381.153 280.921 381.379 280.984L382.533 281.31C382.758 281.31 382.909 281.536 382.846 281.686L380.94 286.476C380.879 286.553 380.795 286.609 380.7 286.634C380.605 286.659 380.504 286.652 380.413 286.614Z" fill="#973939"/>
<path d="M414.786 296.132L413.632 295.819C413.406 295.756 413.256 295.58 413.319 295.442L415.225 290.64C415.285 290.562 415.37 290.507 415.465 290.482C415.56 290.457 415.66 290.464 415.751 290.502L416.905 290.828C417.131 290.89 417.269 291.053 417.218 291.191L415.312 295.944C415.25 296.132 415.074 296.195 414.786 296.132Z" fill="#973939"/>
<path d="M397.606 291.379L396.452 291.053C396.214 291.053 396.076 290.828 396.126 290.69L398.045 285.887C398.045 285.749 398.333 285.686 398.559 285.749L399.712 286.062C399.951 286.062 400.089 286.301 400.038 286.439L398.12 291.241C398.07 291.379 397.831 291.442 397.606 291.379Z" fill="#973939"/>
<path d="M413.707 193.116C413.707 193.994 413.331 194.734 412.767 194.759C412.202 194.784 411.688 194.119 411.626 193.241C411.563 192.364 412.002 191.624 412.579 191.586C413.155 191.549 413.657 192.226 413.707 193.116Z" fill="#263238"/>
<path d="M403.788 193.68C403.788 194.558 403.412 195.298 402.835 195.336C402.258 195.373 401.769 194.684 401.706 193.806C401.643 192.928 402.082 192.188 402.659 192.163C403.236 192.138 403.788 192.815 403.788 193.68Z" fill="#263238"/>
<path d="M402.935 192.188L400.803 191.712C400.803 191.712 401.969 193.292 402.935 192.188Z" fill="#263238"/>
<path d="M406.509 195.035C405.845 197.074 404.908 199.014 403.725 200.803C404.189 201.095 404.711 201.282 405.254 201.352C405.798 201.421 406.35 201.371 406.873 201.204L406.509 195.035Z" fill="#ED847E"/>
<path d="M411.751 204.189C411.23 204.324 410.696 204.403 410.158 204.427C410.13 204.431 410.101 204.428 410.074 204.42C410.046 204.411 410.021 204.397 410 204.378C409.978 204.359 409.961 204.336 409.95 204.309C409.938 204.283 409.932 204.255 409.933 204.226C409.931 204.198 409.935 204.17 409.944 204.144C409.953 204.117 409.967 204.093 409.986 204.072C410.005 204.051 410.027 204.034 410.052 204.022C410.078 204.009 410.105 204.002 410.133 204.001C411.23 203.956 412.3 203.657 413.26 203.126C414.221 202.594 415.043 201.846 415.663 200.941C415.695 200.901 415.741 200.875 415.791 200.865C415.841 200.856 415.893 200.865 415.937 200.891C415.981 200.917 416.014 200.958 416.031 201.006C416.047 201.054 416.046 201.107 416.027 201.154C415.039 202.673 413.51 203.758 411.751 204.189Z" fill="#263238"/>
<path d="M416.98 186.708C416.909 186.726 416.835 186.726 416.764 186.706C416.694 186.686 416.63 186.648 416.579 186.595C416.123 186.114 415.558 185.749 414.932 185.531C414.306 185.313 413.636 185.248 412.98 185.341C412.869 185.361 412.755 185.338 412.66 185.278C412.565 185.218 412.495 185.124 412.466 185.015C412.443 184.904 412.464 184.788 412.525 184.692C412.586 184.597 412.682 184.528 412.792 184.501C413.587 184.374 414.4 184.439 415.164 184.692C415.928 184.946 416.62 185.379 417.181 185.956C417.258 186.039 417.302 186.149 417.302 186.263C417.302 186.377 417.258 186.487 417.181 186.57C417.126 186.631 417.057 186.678 416.98 186.708Z" fill="#263238"/>
<path d="M399.499 187.975C399.433 188.014 399.357 188.035 399.28 188.035C399.202 188.035 399.126 188.014 399.06 187.975C398.972 187.907 398.913 187.808 398.896 187.698C398.88 187.588 398.907 187.475 398.972 187.385C399.435 186.727 400.049 186.19 400.763 185.819C401.476 185.448 402.269 185.254 403.073 185.253C403.129 185.257 403.184 185.271 403.234 185.295C403.285 185.32 403.33 185.354 403.367 185.396C403.405 185.438 403.433 185.487 403.452 185.54C403.47 185.593 403.478 185.649 403.474 185.705C403.471 185.761 403.457 185.816 403.432 185.866C403.408 185.917 403.374 185.962 403.332 185.999C403.29 186.037 403.241 186.065 403.188 186.083C403.135 186.102 403.079 186.11 403.023 186.106C402.362 186.117 401.713 186.284 401.129 186.593C400.545 186.903 400.042 187.346 399.662 187.887C399.615 187.928 399.559 187.958 399.499 187.975Z" fill="#263238"/>
<path d="M386.947 233.407C385.856 235.062 384.865 236.392 383.749 237.796C382.633 239.201 381.542 240.517 380.388 241.821C378.074 244.443 375.612 246.93 373.015 249.27C370.432 251.658 367.692 253.87 364.814 255.891C363.397 256.945 361.879 257.86 360.399 258.813L358.08 260.142L356.926 260.794C356.5 261.02 355.948 261.321 355.421 261.534C353.097 262.585 350.514 262.926 347.997 262.512C345.621 262.064 343.401 261.01 341.552 259.453C339.99 258.15 338.615 256.639 337.464 254.963C336.402 253.441 335.459 251.84 334.642 250.173C331.667 243.857 329.615 237.146 328.548 230.247L333.564 229.093C334.605 232.078 335.771 235.175 337.088 238.072C338.321 240.968 339.776 243.764 341.439 246.436C342.826 248.854 344.665 250.983 346.856 252.706C347.585 253.265 348.452 253.616 349.364 253.722C350.162 253.756 350.953 253.565 351.647 253.17C351.889 253.047 352.123 252.908 352.349 252.756L353.327 252.129L355.271 250.875C356.525 249.947 357.779 249.082 359.033 248.091C361.502 246.157 363.871 244.098 366.13 241.922C368.425 239.752 370.569 237.432 372.638 235.05C373.679 233.858 374.695 232.655 375.673 231.426C376.651 230.197 377.629 228.918 378.419 227.789L386.947 233.407Z" fill="#FFC3BD"/>
<path d="M334.529 233.721L335.633 222.021L325.112 226.322C325.112 226.322 326.366 232.203 330.379 234.31L334.529 233.721Z" fill="#FFC3BD"/>
<path d="M332.272 215.701L324.134 213.932L325.112 226.322L335.633 222.021L332.272 215.701Z" fill="#FFC3BD"/>
<path d="M385.956 217.243C380.476 217.243 367.284 238.16 367.284 238.16L376.601 247.815C376.601 247.815 394.157 235.978 394.847 229.005C395.449 223.011 392.928 217.306 385.956 217.243Z" fill="#263238"/>
<path opacity="0.1" d="M385.956 217.243C380.476 217.243 367.284 238.16 367.284 238.16L376.601 247.815C376.601 247.815 394.157 235.978 394.847 229.005C395.449 223.011 392.928 217.306 385.956 217.243Z" fill="white"/>
<path d="M377.454 248.292C377.266 248.48 377.011 248.585 376.746 248.585C376.48 248.585 376.225 248.48 376.037 248.292L366.62 239.063C366.432 238.875 366.327 238.62 366.327 238.354C366.327 238.088 366.432 237.834 366.62 237.646C366.81 237.457 367.067 237.352 367.334 237.352C367.602 237.352 367.859 237.457 368.049 237.646L377.454 246.862C377.643 247.053 377.748 247.31 377.748 247.577C377.748 247.845 377.643 248.102 377.454 248.292Z" fill="#973939"/>
<path d="M318.516 483.768C318.86 483.759 319.191 483.636 319.456 483.417C319.582 483.336 319.683 483.222 319.747 483.086C319.811 482.951 319.837 482.801 319.82 482.652C319.707 481.298 316.271 479.454 315.87 479.241C315.836 479.22 315.797 479.209 315.757 479.209C315.717 479.209 315.678 479.22 315.644 479.241C315.609 479.266 315.583 479.301 315.569 479.342C315.556 479.382 315.556 479.426 315.569 479.467C315.958 480.846 316.823 483.229 318.077 483.668C318.216 483.727 318.365 483.761 318.516 483.768ZM316.008 479.868C317.262 480.545 319.218 481.85 319.281 482.69C319.289 482.765 319.275 482.842 319.239 482.909C319.203 482.976 319.148 483.031 319.08 483.066C318.953 483.185 318.797 483.269 318.628 483.308C318.458 483.348 318.281 483.342 318.114 483.292C317.437 483.041 316.66 481.774 316.008 479.868Z" fill="#973939"/>
<path d="M318.98 480.407C319.522 480.449 320.064 480.312 320.522 480.019C320.673 479.894 320.776 479.72 320.812 479.528C320.849 479.336 320.817 479.137 320.723 478.965C320.657 478.785 320.55 478.622 320.411 478.489C320.272 478.357 320.104 478.258 319.92 478.2C318.453 477.686 315.719 479.179 315.607 479.241C315.574 479.261 315.547 479.289 315.527 479.322C315.508 479.354 315.496 479.391 315.494 479.429C315.494 479.467 315.503 479.503 315.52 479.536C315.538 479.569 315.563 479.597 315.594 479.617C316.649 480.131 317.806 480.401 318.98 480.407ZM319.193 478.514C319.394 478.513 319.593 478.547 319.782 478.614C319.907 478.651 320.02 478.717 320.114 478.806C320.208 478.895 320.279 479.006 320.322 479.128C320.46 479.454 320.322 479.605 320.246 479.693C319.607 480.232 317.35 479.931 316.183 479.429C317.117 478.93 318.14 478.619 319.193 478.514Z" fill="#973939"/>
<path d="M390.107 510.992C390.984 511.058 391.859 510.852 392.615 510.403C392.81 510.257 392.968 510.068 393.077 509.85C393.185 509.632 393.242 509.392 393.242 509.149C393.258 509.023 393.238 508.895 393.185 508.78C393.132 508.665 393.047 508.567 392.941 508.497C391.775 507.694 387.085 509.851 386.558 510.102C386.516 510.121 386.48 510.153 386.457 510.194C386.435 510.235 386.426 510.282 386.433 510.328C386.438 510.371 386.456 510.411 386.485 510.443C386.515 510.474 386.553 510.496 386.596 510.503C387.746 510.79 388.923 510.953 390.107 510.992ZM392.164 508.773C392.346 508.761 392.529 508.8 392.69 508.886C392.753 508.886 392.816 508.999 392.803 509.174C392.801 509.347 392.757 509.516 392.677 509.669C392.596 509.822 392.48 509.953 392.339 510.052C391.286 510.855 388.715 510.516 387.323 510.265C388.848 509.516 390.482 509.012 392.164 508.773Z" fill="#973939"/>
<path d="M386.633 510.554H386.708C388.125 509.977 391.072 507.607 390.909 506.428C390.909 506.177 390.709 505.864 390.069 505.788C387.561 505.5 386.47 510.102 386.42 510.303C386.413 510.342 386.416 510.382 386.429 510.419C386.442 510.457 386.465 510.49 386.495 510.516C386.537 510.541 386.584 510.554 386.633 510.554ZM389.843 506.19H389.994C390.433 506.19 390.458 506.403 390.47 506.466C390.571 507.218 388.464 509.137 386.934 509.939C387.273 508.873 388.226 506.19 389.843 506.19Z" fill="#973939"/>
<path d="M412.83 191.611L410.698 191.135C410.698 191.135 411.864 192.715 412.83 191.611Z" fill="#263238"/>
<path d="M191.251 516.262L333.078 503.879C342.71 503.038 349.836 494.548 348.995 484.917L319.455 146.596C318.614 136.964 310.125 129.838 300.493 130.679L158.666 143.062C149.034 143.903 141.908 152.393 142.749 162.024L172.289 500.345C173.13 509.977 181.619 517.103 191.251 516.262Z" fill="#0FB000"/>
<path d="M153.364 261.948C154.678 261.824 155.89 261.187 156.738 260.175C157.585 259.163 158 257.859 157.891 256.543L153.991 211.926C153.87 210.612 153.236 209.399 152.227 208.549C151.218 207.7 149.914 207.282 148.599 207.387C147.283 207.508 146.068 208.143 145.218 209.155C144.368 210.167 143.952 211.474 144.06 212.791L147.972 257.409C148.093 258.722 148.727 259.935 149.737 260.785C150.746 261.635 152.049 262.053 153.364 261.948Z" fill="#0FB000"/>
<path d="M326.587 226.659L328.323 226.507C330.359 226.329 331.865 224.535 331.687 222.5L329.307 195.241C329.129 193.206 327.335 191.7 325.3 191.878L323.563 192.029C321.528 192.207 320.022 194.001 320.2 196.036L322.58 223.295C322.758 225.33 324.552 226.836 326.587 226.659Z" fill="#263238"/>
<path d="M328.623 272.547L330.366 272.39C332.409 272.206 333.916 270.401 333.732 268.358L331.269 240.995C331.086 238.952 329.28 237.445 327.237 237.629L325.494 237.786C323.451 237.97 321.944 239.775 322.128 241.818L324.59 269.181C324.774 271.224 326.58 272.731 328.623 272.547Z" fill="#263238"/>
<path d="M194.231 515.994L336.058 503.611C345.69 502.77 352.816 494.28 351.975 484.649L322.435 146.327C321.594 136.696 313.104 129.57 303.473 130.411L161.646 142.794C152.014 143.635 144.888 152.125 145.729 161.756L175.269 500.077C176.11 509.709 184.599 516.835 194.231 515.994Z" fill="#263238"/>
<path opacity="0.4" d="M180.263 494.929L346.104 480.445C346.971 480.365 347.771 479.946 348.33 479.279C348.889 478.612 349.162 477.751 349.089 476.884L321.024 155.107C320.944 154.243 320.527 153.445 319.863 152.886C319.198 152.327 318.341 152.053 317.475 152.123L151.571 166.619C151.143 166.657 150.726 166.779 150.345 166.978C149.964 167.176 149.626 167.448 149.35 167.778C149.074 168.107 148.866 168.488 148.737 168.898C148.608 169.308 148.561 169.74 148.599 170.168L176.714 491.957C176.75 492.386 176.871 492.803 177.069 493.185C177.267 493.567 177.539 493.906 177.869 494.182C178.199 494.458 178.581 494.666 178.991 494.795C179.402 494.923 179.834 494.968 180.263 494.929Z" fill="#0FB000"/>
<path opacity="0.3" d="M295.555 154.041L274.714 486.677L240.053 489.712L260.895 157.064L295.555 154.041Z" fill="#0FB000"/>
<path opacity="0.2" d="M250.951 143.366L215.535 146.458C214.714 146.53 214.106 147.254 214.178 148.075L214.304 149.511C214.375 150.332 215.099 150.94 215.92 150.868L251.336 147.776C252.157 147.704 252.765 146.981 252.693 146.16L252.568 144.723C252.496 143.902 251.772 143.294 250.951 143.366Z" fill="white"/>
<path d="M217.945 272.268H390.508C394.991 272.282 399.286 274.068 402.455 277.238C405.625 280.407 407.411 284.703 407.424 289.185V373.83C407.411 378.314 405.625 382.61 402.456 385.782C399.287 388.953 394.992 390.742 390.508 390.759H330.793L304.22 417.331L277.648 390.759H217.945C213.459 390.746 209.161 388.958 205.989 385.786C202.817 382.614 201.029 378.316 201.016 373.83V289.185C201.029 284.7 202.818 280.403 205.99 277.233C209.162 274.063 213.46 272.278 217.945 272.268Z" fill="#0FB000"/>
<path opacity="0.3" d="M217.945 272.268H390.508C394.991 272.282 399.286 274.068 402.455 277.238C405.625 280.407 407.411 284.703 407.424 289.185V373.83C407.411 378.314 405.625 382.61 402.456 385.782C399.287 388.953 394.992 390.742 390.508 390.759H330.793L304.22 417.331L277.648 390.759H217.945C213.459 390.746 209.161 388.958 205.989 385.786C202.817 382.614 201.029 378.316 201.016 373.83V289.185C201.029 284.7 202.818 280.403 205.99 277.233C209.162 274.063 213.46 272.278 217.945 272.268Z" fill="white"/>
<path d="M229.006 301.6V361.415C228.986 363.735 229.884 365.968 231.506 367.627C233.127 369.286 235.339 370.236 237.658 370.269H370.783C373.102 370.236 375.314 369.286 376.936 367.627C378.557 365.968 379.456 363.735 379.436 361.415V301.6C379.435 300.467 379.222 299.344 378.809 298.289C378.177 296.669 377.076 295.276 375.645 294.288C374.215 293.3 372.521 292.763 370.783 292.746H237.658C235.921 292.762 234.229 293.299 232.8 294.287C231.372 295.275 230.273 296.669 229.645 298.289C229.22 299.341 229.003 300.465 229.006 301.6Z" fill="white"/>
<path opacity="0.1" d="M229.645 298.289L294 326.316C297.226 327.724 300.707 328.451 304.227 328.451C307.746 328.451 311.228 327.724 314.453 326.316L378.808 298.289C378.177 296.669 377.075 295.276 375.645 294.288C374.215 293.3 372.521 292.763 370.783 292.746H237.658C235.921 292.762 234.229 293.299 232.8 294.287C231.372 295.275 230.272 296.669 229.645 298.289Z" fill="black"/>
<path d="M232.531 297.98C242.58 287.931 242.58 271.639 232.531 261.59C222.482 251.541 206.189 251.541 196.14 261.59C186.091 271.639 186.091 287.931 196.14 297.98C206.189 308.029 222.482 308.029 232.531 297.98Z" fill="#DE5753"/>
<path d="M219.3 295.467H213.306V272.895C211.09 274.957 208.449 276.506 205.568 277.435V272.005C207.418 271.325 209.139 270.337 210.66 269.083C212.372 267.81 213.678 266.068 214.422 264.067H219.287L219.3 295.467Z" fill="white"/>
<path d="M359.108 120.284C358.216 120.276 357.355 119.952 356.68 119.369C356.004 118.785 355.558 117.98 355.421 117.099C353.701 105.793 347.568 95.6317 338.368 88.8407C329.168 82.0497 317.65 79.1835 306.34 80.8705C305.422 80.8946 304.526 80.582 303.823 79.9917C303.119 79.4014 302.656 78.574 302.52 77.6657C302.385 76.7573 302.586 75.8307 303.086 75.0605C303.586 74.2903 304.351 73.7297 305.236 73.4844C318.504 71.5066 332.014 74.8712 342.804 82.8404C353.594 90.8096 360.783 102.733 362.795 115.995C362.932 116.971 362.68 117.963 362.094 118.755C361.508 119.548 360.634 120.079 359.66 120.234C359.478 120.268 359.293 120.285 359.108 120.284Z" fill="#0FB000"/>
<path d="M340.561 123.068C339.671 123.061 338.811 122.738 338.136 122.157C337.461 121.576 337.014 120.775 336.875 119.895C335.906 113.503 332.442 107.756 327.242 103.915C322.042 100.074 315.53 98.4517 309.136 99.4046C308.217 99.4322 307.319 99.122 306.613 98.5327C305.907 97.9434 305.441 97.1158 305.303 96.2064C305.166 95.297 305.367 94.3687 305.867 93.597C306.368 92.8254 307.134 92.2639 308.02 92.0186C316.373 90.7707 324.88 92.8875 331.674 97.9044C338.468 102.921 342.995 110.429 344.261 118.779C344.401 119.757 344.151 120.752 343.565 121.547C342.978 122.343 342.102 122.875 341.126 123.03C340.938 123.055 340.75 123.068 340.561 123.068Z" fill="#0FB000"/>
<path d="M322.027 125.864C321.135 125.857 320.274 125.532 319.598 124.949C318.923 124.365 318.477 123.561 318.34 122.679C318.232 121.945 317.979 121.24 317.597 120.605C317.215 119.969 316.711 119.415 316.115 118.975C315.518 118.534 314.841 118.216 314.121 118.038C313.401 117.86 312.653 117.827 311.92 117.939C311.01 117.951 310.126 117.633 309.433 117.044C308.739 116.455 308.283 115.634 308.148 114.734C308.013 113.834 308.209 112.915 308.7 112.149C309.191 111.382 309.943 110.82 310.816 110.565C312.523 110.308 314.264 110.39 315.939 110.808C317.613 111.226 319.189 111.971 320.575 113C321.96 114.029 323.129 115.322 324.013 116.805C324.897 118.287 325.479 119.93 325.726 121.638C325.863 122.614 325.612 123.606 325.025 124.398C324.439 125.191 323.565 125.722 322.591 125.877C322.403 125.891 322.214 125.887 322.027 125.864Z" fill="#0FB000"/>
</svg>
