<svg width="24" height="24" viewBox="0 0 24 24" fill="none" xmlns="http://www.w3.org/2000/svg">
<path d="M19.4914 5.42336C20.1794 6.33115 20.5155 7.45734 20.4375 8.59372C20.3595 9.7301 19.8727 10.7998 19.0671 11.6051L17.4 13.2714C17.2794 13.3917 17.1161 13.4594 16.9457 13.4594C16.7753 13.4594 16.6119 13.3917 16.4914 13.2714L10.7331 7.51393C10.6127 7.3934 10.5451 7.23001 10.5451 7.05965C10.5451 6.88929 10.6127 6.7259 10.7331 6.60536L12.4003 4.93822C13.2055 4.13263 14.2752 3.64583 15.4116 3.56784C16.548 3.48984 17.6742 3.82592 18.582 4.51393L21.1911 1.90479C21.3123 1.78763 21.4747 1.72276 21.6432 1.72414C21.8118 1.72553 21.9731 1.79306 22.0923 1.9122C22.2115 2.03133 22.2792 2.19254 22.2808 2.36109C22.2823 2.52965 22.2176 2.69206 22.1006 2.81336L19.4914 5.42336ZM10.9517 10.5225C11.0689 10.4013 11.1337 10.239 11.1323 10.0704C11.131 9.90185 11.0634 9.74058 10.9443 9.62133C10.8252 9.50208 10.664 9.4344 10.4954 9.43285C10.3268 9.43131 10.1644 9.49603 10.0431 9.61308L8.21998 11.4354L7.51541 10.7308C7.39487 10.6104 7.23148 10.5428 7.06112 10.5428C6.89077 10.5428 6.72738 10.6104 6.60684 10.7308L4.9397 12.3971C4.1341 13.2023 3.64731 14.2721 3.56931 15.4084C3.49132 16.5448 3.82739 17.671 4.51541 18.5788L1.90627 21.1888C1.84311 21.2476 1.79245 21.3186 1.75731 21.3975C1.72218 21.4763 1.70328 21.5615 1.70176 21.6478C1.70024 21.7341 1.71612 21.8198 1.74845 21.8999C1.78078 21.9799 1.8289 22.0526 1.88995 22.1137C1.95099 22.1747 2.02371 22.2229 2.10376 22.2552C2.1838 22.2875 2.26954 22.3034 2.35586 22.3019C2.44217 22.3003 2.5273 22.2815 2.60616 22.2463C2.68501 22.2112 2.75599 22.1605 2.81484 22.0974L5.42484 19.4882C6.33252 20.1763 7.45866 20.5126 8.59503 20.4347C9.73141 20.3569 10.8012 19.8703 11.6066 19.0648L13.2728 17.3977C13.3932 17.2771 13.4608 17.1137 13.4608 16.9434C13.4608 16.773 13.3932 16.6096 13.2728 16.4891L12.564 15.7794L14.3863 13.9579C14.4476 13.8986 14.4966 13.8276 14.5302 13.7492C14.5639 13.6708 14.5816 13.5864 14.5823 13.501C14.583 13.4157 14.5667 13.331 14.5343 13.252C14.502 13.1731 14.4542 13.1013 14.3938 13.041C14.3334 12.9806 14.2616 12.9329 14.1826 12.9006C14.1036 12.8684 14.0189 12.8521 13.9336 12.8529C13.8482 12.8537 13.7639 12.8715 13.6854 12.9052C13.607 12.9389 13.5361 12.9879 13.4768 13.0494L11.6554 14.8708L9.12941 12.3448L10.9517 10.5225Z" fill="black"/>
</svg>
