<svg width="21" height="24" viewBox="0 0 21 24" fill="none" xmlns="http://www.w3.org/2000/svg">
<path d="M17.3953 7.00235C17.3953 3.13412 14.296 0 10.4707 0C6.64543 0 3.54612 3.13412 3.54612 7.00235C3.54612 9.34024 4.67974 11.4127 6.42206 12.6833C6.41089 12.6889 6.40251 12.6918 6.39693 12.6946C5.14883 13.2282 4.02916 13.9934 3.06586 14.9704C2.10256 15.9445 1.34868 17.0795 0.820956 18.3445C0.304404 19.5812 0.0279785 20.8941 5.67926e-05 22.2438C-0.00273538 22.3708 0.0977829 22.4753 0.223431 22.4753H1.89594C2.01601 22.4753 2.11653 22.3765 2.11932 22.2551C2.17516 20.0753 3.03794 18.0339 4.56526 16.4866C6.14284 14.8856 8.23697 14.0047 10.4707 14.0047C14.296 14.0047 17.3953 10.8706 17.3953 7.00235ZM10.4707 11.8588C7.81815 11.8588 5.66817 9.68471 5.66817 7.00235C5.66817 4.32 7.81815 2.14588 10.4707 2.14588C13.1233 2.14588 15.2733 4.32 15.2733 7.00235C15.2733 9.68471 13.1233 11.8588 10.4707 11.8588ZM13.4025 18.0988H20.7738C20.8967 18.0988 20.9972 17.9972 20.9972 17.8729V16.2918C20.9972 16.1675 20.8967 16.0659 20.7738 16.0659H15.8456L17.1636 14.3689C17.1943 14.3294 17.211 14.2786 17.211 14.2306C17.211 14.1064 17.1105 14.0047 16.9876 14.0047H14.9605C14.8237 14.0047 14.6953 14.0696 14.6087 14.1769L12.6961 16.6362C12.5732 16.7944 12.5062 16.992 12.5062 17.1953C12.509 17.6951 12.9083 18.0988 13.4025 18.0988ZM20.1037 19.9059H12.7324C12.6095 19.9059 12.509 20.0075 12.509 20.1318V21.7129C12.509 21.8372 12.6095 21.9388 12.7324 21.9388H17.6606L16.3427 23.6358C16.3119 23.6753 16.2952 23.7261 16.2952 23.7741C16.2952 23.8984 16.3957 24 16.5186 24H18.5457C18.6825 24 18.8109 23.9351 18.8975 23.8278L20.8101 21.3685C20.933 21.2104 21 21.0127 21 20.8094C20.9972 20.3096 20.5979 19.9059 20.1037 19.9059Z" fill="black"/>
</svg>
