<svg width="23" height="23" viewBox="0 0 23 23" fill="none" xmlns="http://www.w3.org/2000/svg">
<g clip-path="url(#clip0_1460_192)">
<path d="M16.2918 20.125V18.2083C16.2918 17.1917 15.888 16.2166 15.1691 15.4978C14.4502 14.7789 13.4752 14.375 12.4585 14.375H4.79183C3.77517 14.375 2.80014 14.7789 2.08125 15.4978C1.36236 16.2166 0.958496 17.1917 0.958496 18.2083V20.125" stroke="#6A6A6A" stroke-width="2" stroke-linecap="round" stroke-linejoin="round"/>
<path d="M8.62484 10.5417C10.7419 10.5417 12.4582 8.82542 12.4582 6.70833C12.4582 4.59124 10.7419 2.875 8.62484 2.875C6.50775 2.875 4.7915 4.59124 4.7915 6.70833C4.7915 8.82542 6.50775 10.5417 8.62484 10.5417Z" stroke="#6A6A6A" stroke-width="2" stroke-linecap="round" stroke-linejoin="round"/>
<path d="M22.0415 20.125V18.2083C22.0409 17.359 21.7582 16.5339 21.2378 15.8626C20.7174 15.1914 19.9889 14.7119 19.1665 14.4996" stroke="#6A6A6A" stroke-width="2" stroke-linecap="round" stroke-linejoin="round"/>
<path d="M15.3335 2.99957C16.1581 3.21069 16.8889 3.69024 17.4108 4.36262C17.9327 5.035 18.216 5.86195 18.216 6.71311C18.216 7.56428 17.9327 8.39123 17.4108 9.06361C16.8889 9.73598 16.1581 10.2155 15.3335 10.4267" stroke="#6A6A6A" stroke-width="2" stroke-linecap="round" stroke-linejoin="round"/>
</g>
<defs>
<clipPath id="clip0_1460_192">
<rect width="23" height="23" fill="white"/>
</clipPath>
</defs>
</svg>
